<?xml version="1.0" encoding="utf-8"?>
<!-- Generator: Adobe Illustrator 28.0.0, SVG Export Plug-In . SVG Version: 6.00 Build 0)  -->
<svg version="1.1" id="Ebene_1" xmlns="http://www.w3.org/2000/svg" xmlns:xlink="http://www.w3.org/1999/xlink" x="0px" y="0px"
	 viewBox="0 0 550.1 114" style="enable-background:new 0 0 550.1 114;" xml:space="preserve">
<style type="text/css">
	.st0{fill:#FFFFFF;}
</style>
<g>
	<path class="st0" d="M163.1,114c-11.5-2.4-21.9-7-29.3-16.6c-10.4-13.4-12.7-28.1-5.9-43.6c6.8-15.5,19.2-23.9,35.9-25.8
		c10.1-1.1,19.8,0.8,29.3,6.5c0-12.1,0-23.3,0-34.5c7,0,14,0,21,0c0.2,1.6,0.5,3.3,0.5,4.9c0,34.1,0,68.2,0,102.4
		c0,1.4-0.2,2.9-0.3,4.5c-7.1,0-13.9,0-20.6,0c-0.3-1.6-0.6-2.9-0.8-3.8c-6.5,2.1-12.6,4.1-18.8,6C170.4,114,166.7,114,163.1,114z
		 M169.1,94.2c12.9,0.1,24-10.5,24.1-23.1c0.2-12.9-10.8-24.1-23.6-24.3c-13.5-0.2-25.1,10.9-25,24
		C144.6,83.4,155.8,94.1,169.1,94.2z"/>
	<path class="st0" d="M343.1,0c0,37.1,0,74.2,0,111.6c-6.6,0-13.2,0-20,0c-0.3-1.2-0.6-2.6-0.8-3.6c-6.5,2-12.8,4-19.1,5.9
		c-3.7,0-7.3,0-11,0c-1.4-0.4-2.9-0.8-4.3-1.1c-21.7-5-36.1-25.4-33.5-47.3C256.8,44,275,28.1,297,27.8c8.9-0.1,17,2.1,25.5,6.8
		c0-2.8,0-4.7,0-6.6c0.2-9.3,0.3-18.6,0.5-27.9C329.7,0,336.4,0,343.1,0z M298.4,94.2c13-0.1,24.3-11,24.1-23.6
		c-0.1-12.9-11.6-23.9-24.7-23.7c-12.4,0.2-23.5,11.3-23.6,23.8C274.1,83.1,285.5,94.2,298.4,94.2z"/>
	<path class="st0" d="M388.1,114c-9.7-2.4-18.7-5.9-25.7-13.3c-12.3-13.1-16-28.4-9.5-45.2c6.5-16.9,19.7-25.9,37.7-27.5
		c4.7-0.4,9.7,0.1,14.4,1.1c4.4,0.9,8.7,3,13.3,4.7c0.2-1.4,0.4-2.8,0.7-4.6c6.8,0,13.5,0,20.6,0c0,27.4,0,54.8,0,82.5
		c-6.8,0-13.6,0-20.5,0c-0.3-1.3-0.6-2.7-0.9-3.8c-6.2,2.1-12.1,4.1-18.1,6.1C396.1,114,392.1,114,388.1,114z M395.2,94.2
		c12.5,0,23.2-10.8,23.2-23.4c0-13-11-24.1-23.8-24c-13,0.2-23.8,11.1-23.8,24C370.9,83.6,382,94.2,395.2,94.2z"/>
	<path class="st0" d="M66.1,114c-9.2-2.1-17.8-5.4-24.8-12C28.6,89.9,24.4,71.5,30.7,55.1C37,39,52.4,28.3,69.7,27.8
		c9.4-0.3,18.1,1.6,26.7,6.6c0.3-2,0.6-3.6,0.8-5.2c6.7,0,13.2,0,20.1,0c0,27.6,0,54.9,0,82.5c-6.6,0-13.2,0-20.1,0
		c-0.2-1.2-0.4-2.6-0.6-3.7C90,110,83.5,112,77.1,114C73.4,114,69.7,114,66.1,114z M71.8,94.2c13.5,0.1,25-10.6,25.1-23.4
		c0.1-12.7-11.4-23.9-24.6-24c-12.8-0.1-24.1,11.1-24.2,23.8C48,83,59.2,94.1,71.8,94.2z"/>
	<path class="st0" d="M479.1,114c-4.8-1.3-9.8-2.2-14.3-4.1c-10.9-4.4-17.5-14.2-16.6-24.7c3.5,0,7.1,0,10.7,0c3.5,0,6.9,0,10.3,0
		c3.4,11.3,14.2,16.2,25,11.7c3.7-1.6,6.9-4.1,6.6-8.5c-0.3-4.2-4-5.5-7.5-6.2c-8.8-1.9-17.7-3.2-26.4-5.3
		c-9.2-2.2-15.1-8.1-16.9-17.6c-2.2-11.3,2.7-21.8,13.4-26.9c14.2-6.7,28.7-6.7,42.7,0.7c8.5,4.5,13,11.9,14,21.8
		c-7.2,0-14,0-20.7,0c-3.6-10.4-15.3-14.7-24.8-8.9c-1.7,1-3.3,3.6-3.3,5.5c-0.1,1.6,1.8,4.3,3.4,4.8c6.5,2,13.2,3.2,19.8,4.8
		c5.1,1.3,10.5,2.1,15.3,4.3c17.1,7.8,19.2,31.1,3.3,41.3c-5.8,3.7-13.2,5-19.9,7.4C488.4,114,483.7,114,479.1,114z"/>
	<path class="st0" d="M245.1,0c0,6.8,0,13.6,0,20.8c-6.7,0-13.2,0-20,0c0-7,0-13.9,0-20.8C231.7,0,238.4,0,245.1,0z"/>
	<path class="st0" d="M244.9,111.8c-6.8,0-13.3,0-20,0c0-27.6,0-54.9,0-82.6c6.6,0,13.2,0,20,0C244.9,56.6,244.9,84,244.9,111.8z"/>
</g>
</svg>
