<?xml version="1.0" encoding="utf-8"?>
<!-- Generator: Adobe Illustrator 27.9.0, SVG Export Plug-In . SVG Version: 6.00 Build 0)  -->
<svg version="1.1" id="Ebene_1" xmlns="http://www.w3.org/2000/svg" xmlns:xlink="http://www.w3.org/1999/xlink" x="0px" y="0px"
	 viewBox="0 0 16 16" style="enable-background:new 0 0 16 16;" xml:space="preserve">
<style type="text/css">
	.st0{fill-rule:evenodd;clip-rule:evenodd;fill:#FFFFFF;}
</style>
<path class="st0" d="M0.7,5.2C0.5,5,0.5,4.6,0.7,4.4c0,0,0,0,0,0L5,0.2c0.2-0.2,0.5-0.2,0.8,0s0.2,0.5,0,0.8L2.4,4.3h10.4
	c1.5,0,2.7,1.2,2.7,2.7v8.5c0,0.3-0.2,0.5-0.5,0.5s-0.5-0.2-0.5-0.5V6.9c0-0.9-0.7-1.6-1.6-1.6H2.4l3.4,3.4c0.2,0.2,0.2,0.5,0,0.8
	C5.5,9.7,5.2,9.7,5,9.4C5,9.4,0.7,5.2,0.7,5.2z"/>
</svg>
