<?xml version="1.0" encoding="utf-8"?>
<!-- Generator: Adobe Illustrator 28.0.0, SVG Export Plug-In . SVG Version: 6.00 Build 0)  -->
<svg version="1.1" id="Ebene_1" xmlns="http://www.w3.org/2000/svg" xmlns:xlink="http://www.w3.org/1999/xlink" x="0px" y="0px"
	 viewBox="0 0 16 16" style="enable-background:new 0 0 16 16;" xml:space="preserve">
<style type="text/css">
	.st0{fill:#FFFFFF;}
</style>
<path class="st0" d="M5.8,5.1c-0.2,0.2-0.2,0.5,0,0.7c0,0,0,0,0,0L8,8l-2.1,2.1c-0.2,0.2-0.2,0.5,0,0.7C6,11,6.3,11,6.5,10.9l0,0
	l2.1-2.1l2.1,2.1c0.2,0.2,0.5,0.2,0.7,0c0.2-0.2,0.2-0.5,0-0.7L9.4,8l2.1-2.1c0.2-0.2,0.2-0.5,0-0.7C11.3,5,11,5,10.8,5.1L8.7,7.3
	L6.5,5.1C6.3,5,6,5,5.8,5.1L5.8,5.1z"/>
<path class="st0" d="M13.7,1c1.1,0,2,0.9,2,2v10c0,1.1-0.9,2-2,2H6.6c-0.6,0-1.1-0.3-1.5-0.7L0.2,8.6c-0.3-0.4-0.3-0.9,0-1.3
	l4.8-5.6C5.5,1.3,6,1,6.6,1C6.6,1,13.7,1,13.7,1z M6.6,2C6.3,2,6,2.1,5.8,2.3L1,8l4.8,5.6C6,13.9,6.3,14,6.6,14h7.1c0.6,0,1-0.4,1-1
	V3c0-0.6-0.4-1-1-1H6.6z"/>
</svg>
