<?xml version="1.0" encoding="utf-8"?>
<!-- Generator: Adobe Illustrator 27.9.0, SVG Export Plug-In . SVG Version: 6.00 Build 0)  -->
<svg version="1.1" id="Ebene_1" xmlns="http://www.w3.org/2000/svg" xmlns:xlink="http://www.w3.org/1999/xlink" x="0px" y="0px"
	 viewBox="0 0 16 16" style="enable-background:new 0 0 16 16;" xml:space="preserve">
<path d="M15.3,5.4C15.1,5.1,14.8,5,14.4,5H9.2C9.1,5,9.1,5.1,9,5c0,0,0.1-0.1,0.1-0.1c1.1-1.1,2.2-2.2,3.3-3.3
	c0.1-0.1,0.2-0.2,0.3-0.3c0.3-0.4,0.1-0.9-0.3-1c-0.3-0.1-0.5,0-0.7,0.2L8.1,3.9C8,4.1,8,4.1,7.9,3.9C7,3.1,6.1,2.2,5.3,1.4
	C4.9,1,4.6,0.7,4.2,0.3C3.9,0,3.3,0.1,3.1,0.6C3,0.9,3.1,1.1,3.3,1.3C4.2,2.2,5.1,3.1,6,3.9c0.3,0.3,0.7,0.7,1,1c0,0,0,0,0,0H1.6
	C0.9,5,0.5,5.4,0.5,6.1c0,2.9,0,5.8,0,8.7c0,0.3,0.1,0.5,0.3,0.7c0.2,0.3,0.5,0.4,0.9,0.4c1.7,0,3.5,0,5.2,0c2.6,0,5.1,0,7.7,0
	c0.7,0,1.1-0.4,1.1-1.1V6.1C15.5,5.8,15.5,5.6,15.3,5.4z M12.3,14.2c0,0.2,0,0.2-0.2,0.2H2.1c-0.2,0-0.2,0-0.2-0.2V6.7
	c0-0.2,0-0.2,0.2-0.2H12c0.2,0,0.2,0,0.2,0.2C12.2,9.2,12.2,11.7,12.3,14.2z M13.9,13.2c-0.4,0-0.7-0.3-0.7-0.7
	c0-0.4,0.3-0.7,0.7-0.7c0.4,0,0.7,0.3,0.7,0.7C14.6,12.9,14.3,13.2,13.9,13.2z M13.9,11.2c-0.4,0-0.7-0.3-0.7-0.7
	c0-0.4,0.3-0.7,0.7-0.7s0.7,0.3,0.7,0.7C14.6,10.8,14.3,11.2,13.9,11.2z M13.9,9.1c-0.4,0-0.7-0.3-0.7-0.7c0-0.4,0.3-0.7,0.7-0.7
	c0.4,0,0.7,0.3,0.7,0.7C14.6,8.8,14.3,9.1,13.9,9.1z"/>
</svg>
