<?xml version="1.0" standalone="no"?>
<!DOCTYPE svg PUBLIC "-//W3C//DTD SVG 1.1//EN" "http://www.w3.org/Graphics/SVG/1.1/DTD/svg11.dtd" >
<svg xmlns="http://www.w3.org/2000/svg" xmlns:xlink="http://www.w3.org/1999/xlink" version="1.1">
<metadata>
Created by FontForge 20200314 at Thu Nov 20 15:24:53 2003
 By Unknown
1995 Albert-Jan Pool, published by Fontshop International for the FontFont library.
</metadata>
<defs>
<font id="AdiHaus-Bold" horiz-adv-x="543" >
  <font-face 
    font-family="AdiHaus"
    font-weight="700"
    font-stretch="normal"
    units-per-em="1000"
    panose-1="2 0 8 3 2 0 0 2 0 4"
    ascent="800"
    descent="-200"
    x-height="521"
    cap-height="712"
    bbox="-115 -206 1158 1023"
    underline-thickness="51"
    underline-position="-135"
    unicode-range="U+0020-F002"
  />
<missing-glyph horiz-adv-x="502" 
d="M-1 0v500h500v-500h-500zM9 10h480v480h-480v-480z" />
    <glyph glyph-name=".notdef" horiz-adv-x="502" 
d="M-1 0v500h500v-500h-500zM9 10h480v480h-480v-480z" />
    <glyph glyph-name=".null" horiz-adv-x="0" 
 />
    <glyph glyph-name="nonmarkingreturn" horiz-adv-x="232" 
 />
    <glyph glyph-name="space" unicode=" " horiz-adv-x="232" 
 />
    <glyph glyph-name="exclam" unicode="!" horiz-adv-x="347" 
d="M273 712l-33 -489h-96l-32 489h161zM267 0h-149v148h149v-148z" />
    <glyph glyph-name="quotedbl" unicode="&#x22;" horiz-adv-x="464" 
d="M190 501h-122v211h122v-211zM395 501h-121v211h121v-211z" />
    <glyph glyph-name="numbersign" unicode="#" horiz-adv-x="691" 
d="M643 420h-89l-16 -108h69v-122h-89l-30 -190h-137l31 190h-116l-30 -190h-137l30 190h-69v122h89l16 108h-70v121h89l28 177h137l-28 -177h116l28 177h136l-27 -177h69v-121zM417 420h-115l-17 -108h116z" />
    <glyph glyph-name="dollar" unicode="$" horiz-adv-x="619" 
d="M571 210q0 -89 -59 -144.5t-156 -67.5v-112h-101v108q-75 2 -132 24t-104 70l90 90q30 -30 70.5 -44t88.5 -16v181l-32 4q-90 12 -138 60q-51 51 -51 139q0 87 55.5 145.5t152.5 68.5v90h101v-89q61 -4 109 -23.5t88 -58.5l-88 -87q-23 22 -55.5 34t-67.5 14v-174l38 -6
q48 -7 80.5 -20.5t55.5 -35.5q55 -52 55 -150zM435 206q0 40 -22 60q-13 12 -28 17t-39 8q-3 1 -4 1v-172q93 11 93 86zM268 428v167q-42 -6 -64.5 -30t-22.5 -58q0 -31 21 -51q23 -22 66 -28z" />
    <glyph glyph-name="percent" unicode="%" horiz-adv-x="848" 
d="M796 131q0 -65 -41.5 -101t-103.5 -36t-103.5 36t-41.5 101v99q0 65 41.5 101t103.5 36t103.5 -36t41.5 -101v-99zM702 135v91q0 57 -51 57t-51 -57v-91q0 -57 51 -57t51 57zM197 345q-62 0 -103.5 36t-41.5 101v99q0 65 41.5 101t103.5 36t103.5 -36t41.5 -101v-99
q0 -65 -41.5 -101t-103.5 -36zM248 486v91q0 57 -51 57t-51 -57v-91q0 -57 51 -57t51 57zM644 712l-337 -712h-102l337 712h102z" />
    <glyph glyph-name="ampersand" unicode="&#x26;" horiz-adv-x="721" 
d="M479 62l-4 -3q-37 -29 -76 -47t-104 -18q-116 0 -175.5 57t-59.5 159q0 62 35.5 108t92.5 83q-31 36 -51 71t-20 80q0 74 51 120t139 46q83 0 132.5 -47t49.5 -121q0 -39 -19 -68.5t-54 -55.5q-8 -6 -23.5 -17.5t-27.5 -19.5l120 -142q33 44 36 125h123q-4 -72 -22 -126
t-54 -95l128 -151h-165zM294 112q31 0 56 10t50 32l-142 167q-37 -25 -54.5 -49.5t-17.5 -59.5q0 -44 31 -72t77 -28zM248 549q0 -17 11 -33.5t35 -44.5l1 -2q7 4 16 10t14 10q19 13 30 28t11 32q0 25 -16 41.5t-43 16.5q-28 0 -43.5 -16t-15.5 -42z" />
    <glyph glyph-name="quotesingle" unicode="'" horiz-adv-x="259" 
d="M191 501h-123v211h123v-211z" />
    <glyph glyph-name="parenleft" unicode="(" horiz-adv-x="336" 
d="M281 -7l-87 -87l-5 5q-31 31 -50 52.5t-33 45.5q-16 27 -21 58.5t-5 70.5v436q0 39 5 70.5t21 58.5q14 24 33 45.5t50 52.5l5 5l87 -87l-5 -5q-20 -20 -30 -32t-21 -30q-15 -27 -15 -84v-424q0 -57 15 -84q11 -18 21.5 -30.5t29.5 -31.5z" />
    <glyph glyph-name="parenright" unicode=")" horiz-adv-x="336" 
d="M256 138q0 -39 -5 -70.5t-21 -58.5q-14 -24 -33 -45.5t-49 -52.5l-6 -5l-88 88l9 9q18 18 27.5 29t19.5 28q15 27 15 84v424q0 57 -15 84q-10 17 -19.5 28t-27.5 29l-9 9l88 88l6 -5q30 -31 49 -52.5t33 -45.5q16 -27 21 -58.5t5 -70.5v-436z" />
    <glyph glyph-name="asterisk" unicode="*" horiz-adv-x="494" 
d="M440 460l-46 -79l-105 66l4 -125h-92l5 125l-106 -66l-45 79l110 58l-110 58l45 80l106 -67l-5 125h92l-4 -125l105 67l46 -80l-111 -58z" />
    <glyph glyph-name="plus" unicode="+" 
d="M493 216h-160v-160h-122v160h-161v122h161v160h122v-160h160v-122z" />
    <glyph glyph-name="comma" unicode="," horiz-adv-x="279" 
d="M211 -55l-143 -110v307h143v-197z" />
    <glyph glyph-name="hyphen" unicode="-" horiz-adv-x="426" 
d="M367 225h-308v121h308v-121z" />
    <glyph glyph-name="period" unicode="." horiz-adv-x="285" 
d="M217 0h-149v148h149v-148z" />
    <glyph glyph-name="slash" unicode="/" horiz-adv-x="403" 
d="M407 786l-285 -860h-122l285 860h122z" />
    <glyph glyph-name="zero" unicode="0" horiz-adv-x="528" 
d="M480 206q0 -98 -62.5 -155t-153.5 -57t-154 57t-63 155v300q0 98 63 155t154 57t153.5 -57t62.5 -155v-300zM350 207v297q0 44 -23.5 70.5t-62.5 26.5t-63 -26.5t-24 -70.5v-297q0 -44 24 -70t63 -26t62.5 26t23.5 70z" />
    <glyph glyph-name="one" unicode="1" horiz-adv-x="528" 
d="M370 0h-130v572l-145 -126v140l145 126h130v-712z" />
    <glyph glyph-name="two" unicode="2" horiz-adv-x="528" 
d="M484 0h-433v117l266 309q20 24 28.5 43t8.5 43q0 41 -22.5 65t-63.5 24q-37 0 -62 -21.5t-25 -69.5h-130q0 95 61.5 151.5t155.5 56.5q96 0 156 -56t60 -151q0 -48 -17 -81t-59 -82l-199 -231h275v-117z" />
    <glyph glyph-name="three" unicode="3" horiz-adv-x="528" 
d="M487 206q0 -102 -64.5 -157t-161.5 -55q-45 0 -85.5 12t-72 38t-50 66t-19.5 94h130q1 -46 28.5 -69.5t68.5 -23.5q43 0 69.5 26t26.5 73q0 45 -26.5 71.5t-73.5 26.5h-19v113h19q45 0 67.5 24.5t22.5 64.5q0 43 -25 67t-62 24t-61.5 -23t-26.5 -63h-130q2 93 64 148
t154 55q47 0 87 -15t69 -42t45 -65t16 -82q0 -54 -22 -90t-60 -56q42 -22 67 -62t25 -100z" />
    <glyph glyph-name="four" unicode="4" horiz-adv-x="528" 
d="M504 101h-65v-101h-125v101h-291v123l244 488h142l-244 -488h149v133h125v-133h65v-123z" />
    <glyph glyph-name="five" unicode="5" horiz-adv-x="528" 
d="M486 240q0 -65 -13 -108t-50 -80q-26 -26 -65.5 -42t-91.5 -16t-93 16t-66 41q-30 30 -42 66t-16 82h130q5 -43 26.5 -65.5t60.5 -22.5t62 23q16 16 22 42.5t6 63.5q0 64 -20.5 96t-66.5 32q-36 0 -57 -16.5t-29 -41.5h-119v402h406v-117h-288v-153q16 15 44.5 25.5
t62.5 10.5q85 0 133 -48q38 -38 51 -84t13 -106z" />
    <glyph glyph-name="six" unicode="6" horiz-adv-x="528" 
d="M484 216q0 -103 -62.5 -162.5t-159.5 -59.5t-159.5 58.5t-62.5 161.5q0 44 15 86.5t45 103.5l150 308h142l-148 -294q22 9 53 9q36 0 70 -14.5t60.5 -42t41.5 -67t15 -87.5zM354 215q0 47 -25.5 75.5t-66.5 28.5t-66.5 -27.5t-25.5 -76.5q0 -48 25.5 -76t66.5 -28
t66.5 28t25.5 76z" />
    <glyph glyph-name="seven" unicode="7" horiz-adv-x="528" 
d="M495 595l-231 -595h-141l231 595h-188v-112h-124v229h453v-117z" />
    <glyph glyph-name="eight" unicode="8" horiz-adv-x="528" 
d="M492 207q0 -100 -64.5 -156.5t-163.5 -56.5q-98 0 -163 56.5t-65 156.5q0 58 25.5 96.5t63.5 63.5q-33 23 -56.5 60t-23.5 88q0 46 17 84t47.5 64.5t70 40.5t84.5 14t84.5 -14t69.5 -40.5t47 -64.5t17 -84q0 -51 -23.5 -88t-56.5 -60q38 -25 64 -63.5t26 -96.5zM362 209
q0 41 -28.5 70t-69.5 29t-69.5 -29t-28.5 -70t28.5 -69.5t69.5 -28.5t69.5 28.5t28.5 69.5zM352 511q0 38 -25 64t-63 26t-63.5 -26t-25.5 -64q0 -39 25.5 -64.5t63.5 -25.5t63 25.5t25 64.5z" />
    <glyph glyph-name="nine" unicode="9" horiz-adv-x="528" 
d="M487 498q0 -44 -15 -87t-44 -103l-151 -308h-141l148 294q-22 -9 -53 -9q-36 0 -70 14.5t-60.5 42t-42 67t-15.5 87.5q0 103 62.5 162.5t159.5 59.5t159.5 -58.5t62.5 -161.5zM357 497q0 49 -25.5 76.5t-66.5 27.5t-66.5 -27.5t-25.5 -76.5q0 -47 25.5 -75.5t66.5 -28.5
t66.5 28t25.5 76z" />
    <glyph glyph-name="colon" unicode=":" horiz-adv-x="309" 
d="M241 271h-148v148h148v-148zM241 0h-148v148h148v-148z" />
    <glyph glyph-name="semicolon" unicode=";" horiz-adv-x="309" 
d="M238 -55l-142 -110v307h142v-197zM241 271h-148v148h148v-148z" />
    <glyph glyph-name="less" unicode="&#x3c;" 
d="M475 42l-406 187v113l406 187v-137l-241 -107l241 -106v-137z" />
    <glyph glyph-name="equal" unicode="=" 
d="M493 333h-443v122h443v-122zM493 116h-443v122h443v-122z" />
    <glyph glyph-name="greater" unicode="&#x3e;" 
d="M475 229l-406 -187v137l241 106l-241 107v137l406 -187v-113z" />
    <glyph glyph-name="question" unicode="?" horiz-adv-x="523" 
d="M364 295q-8 -10 -13 -24.5t-5 -26.5v-21h-130v30q0 31 8.5 54t29.5 50l74 95q13 17 21 34t8 33q0 36 -22 59t-59 23q-38 0 -59 -23.5t-21 -59.5h-130q0 45 16 82.5t45 63.5t67 40t82 14q43 0 81 -13.5t67.5 -39.5t46 -63.5t16.5 -83.5q0 -35 -12.5 -64.5t-36.5 -60.5z
M350 0h-138v133h138v-133z" />
    <glyph glyph-name="at" unicode="@" horiz-adv-x="879" 
d="M796 398q0 -44 -17 -87.5t-47 -78.5t-69.5 -55t-82.5 -20q-41 0 -64 19t-26 47q-12 -27 -40 -46.5t-55 -19.5q-34 0 -59.5 14t-42 38t-24.5 53.5t-8 60.5q0 39 11 77t32 70.5t53 51.5t73 19q30 0 49 -15.5t32 -39.5l8 47h104l-32 -231q-3 -21 -3 -34q0 -21 21 -21
q16 0 31 13.5t27 36.5t18.5 49t6.5 51q0 104 -65.5 163.5t-172.5 59.5q-56 0 -105 -22.5t-85 -61.5t-56 -89t-20 -104q0 -113 70 -184q34 -34 82 -53t108 -19q77 0 131 12.5t101 33.5l30 -90q-63 -28 -125.5 -38.5t-155.5 -10.5q-70 0 -133 25.5t-111 72t-75 111.5t-27 142
q0 74 29 141.5t80.5 120t119.5 82t143 29.5q71 0 133 -22.5t109 -65t73 -102t26 -130.5zM493 384q0 59 -53 59q-15 0 -27.5 -11t-21 -27.5t-13.5 -35.5t-5 -34q0 -35 6.5 -58t29.5 -23t40 12.5t26.5 32t13.5 42t4 43.5z" />
    <glyph glyph-name="A" unicode="A" horiz-adv-x="638" 
d="M633 0h-145l-42 126h-253l-43 -126h-145l259 712h109zM409 243l-87 259l-90 -259h177z" />
    <glyph glyph-name="B" unicode="B" horiz-adv-x="658" 
d="M599 205q0 -97 -60 -151t-158 -54h-298v712h286q104 0 162 -54t58 -146q0 -54 -27.5 -92.5t-60.5 -54.5q40 -19 69 -57.5t29 -102.5zM460 212q0 38 -24 62.5t-69 24.5h-145v-175h145q45 0 69 25t24 63zM450 506q0 37 -24 59.5t-68 22.5h-136v-164h136q44 0 68 22.5
t24 59.5z" />
    <glyph glyph-name="C" unicode="C" horiz-adv-x="562" 
d="M519 76q-42 -41 -88 -61.5t-110 -20.5q-114 0 -192 78q-47 47 -58.5 106.5t-11.5 177.5t11.5 177.5t58.5 106.5q78 78 192 78q64 0 110 -20.5t88 -61.5l-92 -92q-26 26 -48.5 38t-57.5 12q-56 0 -88 -37q-11 -12 -17.5 -26t-10 -35t-5.5 -54t-2 -86t2 -86t5.5 -54t10 -35
t17.5 -26q32 -37 88 -37q35 0 57.5 12t48.5 38z" />
    <glyph glyph-name="D" unicode="D" horiz-adv-x="659" 
d="M600 359q0 -120 -11 -173q-7 -36 -22 -65t-39 -53q-34 -34 -82.5 -51t-105.5 -17h-257v712h257q57 0 105.5 -17t82.5 -51q25 -24 39 -52t21.5 -61.5t9.5 -73.5t2 -98zM461 359q0 85 -5.5 123.5t-24.5 61.5q-36 44 -104 44h-105v-464h105q68 0 104 44q19 23 24.5 63.5
t5.5 127.5z" />
    <glyph glyph-name="E" unicode="E" horiz-adv-x="605" 
d="M552 0h-469v712h469v-124h-330v-167h281v-124h-281v-173h330v-124z" />
    <glyph glyph-name="F" unicode="F" horiz-adv-x="590" 
d="M552 588h-330v-175h281v-124h-281v-289h-139v712h469v-124z" />
    <glyph glyph-name="G" unicode="G" horiz-adv-x="637" 
d="M586 294q0 -79 -14.5 -129.5t-51.5 -88.5q-79 -82 -199 -82q-114 0 -192 78q-47 47 -58.5 106.5t-11.5 177.5t11.5 177.5t58.5 106.5q78 78 192 78q72 0 120.5 -20.5t97.5 -70.5l-94 -94q-33 33 -59 47t-65 14q-56 0 -89 -38q-11 -12 -17 -25.5t-10 -35t-5.5 -53.5
t-1.5 -86t1.5 -86.5t5.5 -54t10.5 -35t16.5 -25.5q32 -37 89 -37q58 0 95 40q16 18 23.5 43.5t7.5 53.5v25h-126v116h265v-102z" />
    <glyph glyph-name="H" unicode="H" horiz-adv-x="685" 
d="M602 0h-139v298h-241v-298h-139v712h139v-291h241v291h139v-712z" />
    <glyph glyph-name="I" unicode="I" horiz-adv-x="305" 
d="M222 0h-139v712h139v-712z" />
    <glyph glyph-name="J" unicode="J" horiz-adv-x="511" 
d="M437 234q0 -57 -20 -102t-55 -76t-80.5 -46.5t-95.5 -15.5q-58 0 -100.5 17t-82.5 56l92 91q20 -20 40 -30t51 -10q52 0 82 31t30 91v472h139v-478z" />
    <glyph glyph-name="K" unicode="K" horiz-adv-x="665" 
d="M659 0h-162l-183 324l-92 -110v-214h-139v712h139v-310l251 310h169l-236 -283z" />
    <glyph glyph-name="L" unicode="L" horiz-adv-x="575" 
d="M545 0h-462v712h139v-588h323v-124z" />
    <glyph glyph-name="M" unicode="M" horiz-adv-x="811" 
d="M728 0h-139v415l-136 -270h-94l-137 270v-415h-139v712h137l186 -385l185 385h137v-712z" />
    <glyph glyph-name="N" unicode="N" horiz-adv-x="711" 
d="M628 0h-124l-282 437v-437h-139v712h124l282 -436v436h139v-712z" />
    <glyph glyph-name="O" unicode="O" horiz-adv-x="644" 
d="M585 356q0 -116 -11.5 -176t-59.5 -108q-39 -39 -86 -58.5t-106 -19.5t-106.5 19.5t-86.5 58.5q-47 47 -58.5 106.5t-11.5 177.5t11.5 177.5t58.5 106.5q39 39 86.5 58.5t106.5 19.5t106 -19.5t86 -58.5q48 -48 59.5 -108t11.5 -176zM446 356q0 53 -1.5 86t-5.5 54
t-10.5 34.5t-17.5 25.5q-33 38 -89 38q-28 0 -51.5 -10t-38.5 -28q-11 -12 -17 -25.5t-10 -35t-5.5 -53.5t-1.5 -86t1.5 -86.5t5.5 -53.5t10.5 -34.5t16.5 -25.5q15 -18 38.5 -28t51.5 -10q56 0 89 38q11 12 17.5 26t10.5 34.5t5.5 54t1.5 85.5z" />
    <glyph glyph-name="P" unicode="P" horiz-adv-x="628" 
d="M594 490q0 -46 -16 -86t-46.5 -70.5t-74.5 -48t-98 -17.5h-137v-268h-139v712h276q54 0 98 -17t74.5 -48t46.5 -71t16 -86zM455 490q0 44 -28 71t-75 27h-130v-195h130q47 0 75 26.5t28 70.5z" />
    <glyph glyph-name="Q" unicode="Q" horiz-adv-x="643" 
d="M602 43l-73 -73l-63 63q-60 -39 -144 -39q-59 0 -106.5 19.5t-86.5 58.5q-47 47 -58.5 106.5t-11.5 177.5t11.5 177.5t58.5 106.5q39 39 86.5 58.5t106.5 19.5t106 -19.5t86 -58.5q48 -48 59.5 -108t11.5 -176q0 -102 -7.5 -155.5t-36.5 -96.5zM446 356q0 53 -1.5 86
t-5.5 54t-10.5 34.5t-17.5 25.5q-33 38 -89 38q-28 0 -51.5 -10t-38.5 -28q-11 -12 -17 -25.5t-10 -35t-5.5 -53.5t-1.5 -86t1.5 -86.5t5.5 -53.5t10.5 -34.5t16.5 -25.5q15 -18 38.5 -28t51.5 -10q27 0 46 13l-62 61l74 73l53 -53q8 22 10.5 54t2.5 90z" />
    <glyph glyph-name="R" unicode="R" horiz-adv-x="654" 
d="M622 0h-161l-139 284h-100v-284h-139v712h279q53 0 96.5 -17t73.5 -47t45.5 -69.5t15.5 -84.5q0 -71 -37 -119t-93 -68zM454 494q0 42 -28 68t-73 26h-131v-188h131q45 0 73 26t28 68z" />
    <glyph glyph-name="S" unicode="S" horiz-adv-x="591" 
d="M543 210q0 -101 -74 -158.5t-190 -57.5q-84 0 -146.5 21.5t-113.5 72.5l90 90q32 -32 75.5 -46t96.5 -14q126 0 126 88q0 40 -22 60q-11 10 -25 15.5t-38 9.5l-86 12q-91 13 -138 59q-51 51 -51 140q0 97 67 156.5t181 59.5q75 0 130 -19.5t100 -63.5l-88 -87
q-30 29 -66.5 39t-79.5 10q-53 0 -81.5 -25.5t-28.5 -64.5q0 -31 21 -51q24 -22 66 -28l84 -12q48 -7 80.5 -20t55.5 -35q55 -52 55 -151z" />
    <glyph glyph-name="T" unicode="T" horiz-adv-x="571" 
d="M541 588h-186v-588h-139v588h-186v124h511v-124z" />
    <glyph glyph-name="U" unicode="U" horiz-adv-x="668" 
d="M596 244q0 -56 -20 -102t-56 -79.5t-84 -51t-102 -17.5t-102 17.5t-84 51t-56 79.5t-20 102v468h139v-463q0 -61 33.5 -96t89.5 -35q57 0 90.5 35t33.5 96v463h138v-468z" />
    <glyph glyph-name="V" unicode="V" horiz-adv-x="581" 
d="M578 712l-236 -712h-104l-235 712h144l143 -464l143 464h145z" />
    <glyph glyph-name="W" unicode="W" horiz-adv-x="887" 
d="M881 712l-191 -712h-116l-131 432l-131 -432h-116l-190 712h145l110 -449l130 449h104l130 -449l111 449h145z" />
    <glyph glyph-name="X" unicode="X" horiz-adv-x="603" 
d="M598 0h-159l-138 248l-137 -248h-159l221 365l-207 347h158l124 -230l125 230h157l-207 -347z" />
    <glyph glyph-name="Y" unicode="Y" horiz-adv-x="572" 
d="M569 712l-214 -420v-292h-138v292l-214 420h151l133 -287l131 287h151z" />
    <glyph glyph-name="Z" unicode="Z" horiz-adv-x="548" 
d="M508 0h-468v112l304 476h-291v124h455v-110l-305 -478h305v-124z" />
    <glyph glyph-name="bracketleft" unicode="[" horiz-adv-x="378" 
d="M337 -74h-257v860h257v-117h-127v-626h127v-117z" />
    <glyph glyph-name="backslash" unicode="\" horiz-adv-x="403" 
d="M403 -74h-122l-281 847h122z" />
    <glyph glyph-name="bracketright" unicode="]" horiz-adv-x="378" 
d="M299 -74h-257v116h127v628h-127v116h257v-860z" />
    <glyph glyph-name="asciicircum" unicode="^" horiz-adv-x="602" 
d="M539 389h-136l-102 188l-102 -188h-136l178 330h120z" />
    <glyph glyph-name="underscore" unicode="_" horiz-adv-x="602" 
d="M602 -178h-602v87h602v-87z" />
    <glyph glyph-name="grave" unicode="`" horiz-adv-x="500" 
d="M305 604h-87l-114 170h137z" />
    <glyph glyph-name="a" unicode="a" horiz-adv-x="534" 
d="M467 0h-127v45q-27 -27 -55.5 -38.5t-72.5 -11.5q-87 0 -133 46q-43 45 -43 117q0 66 45.5 108.5t132.5 42.5h123v26q0 43 -22.5 62.5t-74.5 19.5q-36 0 -57.5 -9.5t-42.5 -33.5l-83 81q37 41 79 56.5t109 15.5q222 0 222 -184v-343zM337 192v28h-103q-73 0 -73 -59
q0 -28 19 -44t56 -16q30 0 48 5t34 20q19 18 19 66z" />
    <glyph glyph-name="b" unicode="b" horiz-adv-x="560" 
d="M509 261q0 -38 -1 -66t-6 -54q-11 -65 -46 -100q-22 -22 -55.5 -34.5t-71.5 -12.5q-42 0 -72.5 12.5t-57.5 42.5v-49h-126v712h130v-237q25 28 55.5 40t70.5 12q38 0 71.5 -12.5t55.5 -34.5q35 -34 44 -86.5t9 -132.5zM379 261q0 36 -3 62t-12 45.5t-27 30.5t-46 11
t-46 -11t-27 -30.5t-12 -45.5t-3 -62t3 -62t12 -46t27 -31t46 -11t46 11t27 31t12 46t3 62z" />
    <glyph glyph-name="c" unicode="c" horiz-adv-x="480" 
d="M452 65q-68 -71 -172 -71q-43 0 -83 13t-74.5 43.5t-55 83t-20.5 127.5t20.5 127.5t54.5 82.5t74.5 43t83.5 13q54 0 96 -17t76 -53l-88 -88q-21 22 -40 31.5t-44 9.5q-46 0 -74 -34q-29 -36 -29 -115q0 -80 29 -116q28 -34 74 -34q25 0 44 9.5t40 31.5z" />
    <glyph glyph-name="d" unicode="d" horiz-adv-x="561" 
d="M488 0h-127v49q-27 -30 -57 -42.5t-72 -12.5q-38 0 -72 12.5t-56 34.5q-34 35 -46 100q-4 26 -5.5 54t-1.5 66q0 80 9.5 132.5t43.5 86.5q22 22 55.5 34.5t71.5 12.5q41 0 71.5 -12t55.5 -40v237h130v-712zM358 261q0 36 -3 62t-12 44q-20 43 -74 43q-28 0 -46 -11
t-27 -30.5t-12 -45.5t-3 -62t3 -62t12 -46t27 -31t46 -11q54 0 74 43q9 19 12 45.5t3 61.5z" />
    <glyph glyph-name="e" unicode="e" horiz-adv-x="548" 
d="M501 220h-326q0 -52 30.5 -84t83.5 -32q41 0 66.5 11.5t51.5 37.5l79 -77q-43 -43 -87 -62.5t-111 -19.5q-50 0 -92.5 13t-76 43t-53 82.5t-19.5 128.5q0 126 62 196t165 70q106 0 166.5 -69.5t60.5 -179.5v-58zM373 309q-1 17 -3.5 29.5t-8.5 26.5q-11 25 -33 39.5
t-54 14.5q-31 0 -53.5 -14.5t-33.5 -39.5q-6 -14 -8.5 -26.5t-3.5 -29.5h198z" />
    <glyph glyph-name="f" unicode="f" horiz-adv-x="342" 
d="M315 407h-96v-407h-130v407h-54v99h54v65q0 61 39 105t113 44h74v-110h-51q-45 0 -45 -47v-57h96v-99z" />
    <glyph glyph-name="g" unicode="g" horiz-adv-x="555" 
d="M482 19q0 -95 -62.5 -155.5t-166.5 -60.5q-62 0 -106 15t-83 53l81 82q22 -21 45.5 -30.5t56.5 -9.5q54 0 79.5 31.5t25.5 76.5v53q-25 -28 -55 -40t-69 -12q-38 0 -70 12t-54 34q-34 34 -43.5 80.5t-9.5 126.5t9.5 126t43.5 80q22 22 54.5 34t70.5 12q41 0 70.5 -12.5
t56.5 -42.5v49h126v-502zM352 275q0 30 -3 53t-11.5 41.5t-26 29.5t-45.5 11t-45 -11t-25.5 -29.5t-11.5 -41t-3 -53.5t3 -53.5t11.5 -41.5t26 -30t44.5 -11q28 0 45 11t26 30t12 42t3 53z" />
    <glyph glyph-name="h" unicode="h" horiz-adv-x="569" 
d="M502 0h-130v318q0 48 -25 70t-60 22t-59.5 -22.5t-24.5 -69.5v-318h-130v712h130v-239q53 54 125 54q83 0 128.5 -52.5t45.5 -137.5v-337z" />
    <glyph glyph-name="i" unicode="i" horiz-adv-x="275" 
d="M203 0h-130v521h130v-521zM204 610h-133v106h133v-106z" />
    <glyph glyph-name="j" unicode="j" horiz-adv-x="275" 
d="M203 -46q0 -61 -38.5 -105t-113.5 -44h-74v110h50q46 0 46 47v559h130v-567zM204 610h-133v106h133v-106z" />
    <glyph glyph-name="k" unicode="k" horiz-adv-x="559" 
d="M547 0h-161l-128 217l-55 -62v-155h-130v712h130v-404l173 213h157l-186 -210z" />
    <glyph glyph-name="l" unicode="l" horiz-adv-x="325" 
d="M294 0h-74q-75 0 -113.5 44t-38.5 105v563h130v-555q0 -47 46 -47h50v-110z" />
    <glyph glyph-name="m" unicode="m" horiz-adv-x="876" 
d="M809 0h-130v315q0 49 -25.5 72t-60.5 23t-61 -22.5t-26 -69.5v-318h-130v315q0 49 -25.5 72t-60.5 23q-36 0 -61.5 -23t-25.5 -72v-315h-130v521h127v-48q25 26 59.5 40t70.5 14q90 0 138 -66q33 34 70 50t86 16q39 0 72.5 -12t55.5 -34q30 -30 43.5 -66.5t13.5 -81.5
v-333z" />
    <glyph glyph-name="n" unicode="n" horiz-adv-x="573" 
d="M506 0h-130v315q0 49 -25.5 72t-60.5 23q-36 0 -61.5 -23t-25.5 -72v-315h-130v521h127v-48q25 26 59 40t71 14q77 0 123 -46q30 -30 41.5 -66t11.5 -82v-333z" />
    <glyph glyph-name="o" unicode="o" 
d="M492 261q0 -75 -12.5 -121.5t-46.5 -81.5q-27 -28 -67.5 -46t-94.5 -18t-94 18t-67 46q-34 35 -46.5 81.5t-12.5 121.5q0 74 12.5 120.5t46.5 81.5q27 29 67 46.5t94 17.5t94.5 -18t67.5 -46q34 -35 46.5 -81.5t12.5 -120.5zM362 261q0 48 -5.5 78t-24.5 48
q-23 23 -61 23q-37 0 -60 -23q-18 -18 -24 -48t-6 -78t6 -78t24 -49q23 -23 60 -23q38 0 61 23q19 19 24.5 49t5.5 78z" />
    <glyph glyph-name="p" unicode="p" horiz-adv-x="560" 
d="M509 261q0 -38 -1 -66t-6 -54q-11 -65 -46 -100q-22 -22 -55.5 -34.5t-71.5 -12.5q-40 0 -70.5 12t-55.5 40v-237h-130v712h126v-49q27 30 57.5 42.5t72.5 12.5q38 0 71.5 -12.5t55.5 -34.5q35 -34 44 -86.5t9 -132.5zM379 261q0 36 -3 62t-12 45.5t-27 30.5t-46 11
t-46 -11t-27 -30.5t-12 -45.5t-3 -62t3 -62t12 -46t27 -31t46 -11t46 11t27 31t12 46t3 62z" />
    <glyph glyph-name="q" unicode="q" horiz-adv-x="561" 
d="M488 -191h-130v237q-25 -28 -55.5 -40t-71.5 -12q-38 0 -71.5 12.5t-55.5 34.5q-34 35 -46 100q-4 26 -5.5 54t-1.5 66q0 80 9.5 132.5t43.5 86.5q22 22 56 34.5t72 12.5q42 0 72 -12.5t57 -42.5v49h127v-712zM358 261q0 36 -3 62t-12 44q-20 43 -74 43q-28 0 -46 -11
t-27 -30.5t-12 -45.5t-3 -62t3 -62t12 -46t27 -31t46 -11q54 0 74 43q9 19 12 45.5t3 61.5z" />
    <glyph glyph-name="r" unicode="r" horiz-adv-x="455" 
d="M454 478l-98 -99q-16 17 -31.5 24t-37.5 7q-33 0 -58.5 -25t-25.5 -71v-314h-130v521h127v-50q20 24 55.5 40t75.5 16q39 0 68 -11t55 -38z" />
    <glyph glyph-name="s" unicode="s" horiz-adv-x="501" 
d="M250 527q65 0 114.5 -14t84.5 -47l-80 -81q-21 19 -52 27t-69 8q-37 0 -55.5 -14.5t-18.5 -35.5q0 -17 11.5 -29.5t42.5 -15.5l42 -4l40 -4q77 -7 116 -46.5t39 -106.5q0 -83 -62 -126.5t-159 -43.5q-72 0 -124.5 15t-97.5 60l85 85q29 -29 64.5 -39t74.5 -10
q38 0 65 13.5t27 40.5q0 21 -13 33t-42 15l-40 4l-42 4q-74 7 -113 42t-39 104q0 78 58.5 122t142.5 44z" />
    <glyph glyph-name="t" unicode="t" horiz-adv-x="352" 
d="M307 0h-71q-74 0 -112.5 44t-38.5 105v258h-55v99h55v154h130v-154h92v-99h-92v-250q0 -47 45 -47h47v-110z" />
    <glyph glyph-name="u" unicode="u" horiz-adv-x="573" 
d="M500 0h-127v48q-25 -26 -59 -40t-71 -14q-77 0 -123 46q-30 30 -41.5 66t-11.5 82v333h130v-315q0 -49 25.5 -72t60.5 -23q36 0 61.5 23t25.5 72v315h130v-521z" />
    <glyph glyph-name="v" unicode="v" horiz-adv-x="493" 
d="M489 521l-191 -521h-102l-192 521h137l106 -322l105 322h137z" />
    <glyph glyph-name="w" unicode="w" horiz-adv-x="759" 
d="M755 521l-159 -521h-107l-109 327l-109 -327h-107l-160 521h138l84 -322l106 322h95l107 -322l84 322h137z" />
    <glyph glyph-name="x" unicode="x" horiz-adv-x="527" 
d="M515 0h-156l-96 156l-95 -156h-156l180 266l-173 255h156l88 -149l89 149h156l-173 -255z" />
    <glyph glyph-name="y" unicode="y" horiz-adv-x="494" 
d="M490 521l-223 -605q-17 -45 -39 -67q-21 -22 -49.5 -31t-62.5 -9h-51v117h30q28 0 41.5 9.5t23.5 37.5l22 64l-178 484h137l108 -322l104 322h137z" />
    <glyph glyph-name="z" unicode="z" horiz-adv-x="478" 
d="M434 0h-397v99l231 305h-218v117h384v-99l-234 -305h234v-117z" />
    <glyph glyph-name="braceleft" unicode="{" horiz-adv-x="457" 
d="M414 -74h-102q-75 0 -112 37q-42 42 -42 111v145q0 43 -17 60q-19 19 -52 19h-46v116h46q33 0 52 19q17 17 17 60v145q0 69 42 111q37 37 112 37h102v-117h-53q-23 0 -36 -3t-21 -11q-16 -17 -16 -64v-135q0 -25 -6.5 -43t-17 -29t-21.5 -17t-24 -11q13 -5 24 -11
t21.5 -17t17 -29t6.5 -43v-135q0 -46 16 -64q8 -8 21 -11t36 -3h53v-117z" />
    <glyph glyph-name="bar" unicode="|" horiz-adv-x="350" 
d="M240 -74h-130v860h130v-860z" />
    <glyph glyph-name="braceright" unicode="}" horiz-adv-x="457" 
d="M414 298h-46q-33 0 -52 -19q-17 -17 -17 -60v-145q0 -69 -42 -111q-37 -37 -112 -37h-102v117h53q23 0 36 3t21 11q16 18 16 64v135q0 25 6.5 43t17 29t21.5 17t24 11q-13 5 -24 11t-21.5 17t-17 29t-6.5 43v135q0 47 -16 64q-8 8 -21 11t-36 3h-53v117h102q75 0 112 -37
q42 -42 42 -111v-145q0 -43 17 -60q19 -19 52 -19h46v-116z" />
    <glyph glyph-name="asciitilde" unicode="~" horiz-adv-x="606" 
d="M569 281q-47 -47 -83.5 -66.5t-81.5 -19.5q-30 0 -56.5 8t-60.5 26q-23 12 -42.5 18t-39.5 6q-23 0 -41.5 -8t-44.5 -34l-82 82q47 47 83 66.5t81 19.5q30 0 56.5 -8t60.5 -26q24 -12 42.5 -18t38.5 -6q23 0 42 8t45 34z" />
    <glyph glyph-name="Euro" horiz-adv-x="684" 
d="M632 219q-18 -109 -88.5 -167t-172.5 -58q-114 0 -192 78q-32 33 -47 71.5t-20 93.5h-73v83h69v75h-69v83h73q5 53 20 91.5t47 70.5q78 78 192 78q103 0 173 -58t88 -167h-141q-11 46 -41 73.5t-79 27.5q-54 0 -88 -37q-13 -15 -19.5 -32t-9.5 -47h148v-83h-154v-75h154
v-83h-149q3 -31 10 -49t20 -33q34 -37 88 -37q49 0 79.5 27.5t41.5 73.5h140z" />
    <glyph glyph-name="nonbreakingspace" unicode="&#xa0;" horiz-adv-x="232" 
 />
    <glyph glyph-name="exclamdown" unicode="&#xa1;" horiz-adv-x="347" 
d="M236 -191h-161l32 489h97zM224 388h-137v133h137v-133z" />
    <glyph glyph-name="cent" unicode="&#xa2;" horiz-adv-x="499" 
d="M469 180q-58 -61 -136 -75v-105h-101v105q-83 17 -134 83.5t-51 177.5t51 177.5t134 83.5v85h101v-85q78 -14 136 -75l-86 -84q-16 17 -30 26.5t-34 14.5v-286q20 5 34 14.5t30 26.5zM246 225v282q-21 -6 -38 -26q-31 -39 -31 -115t31 -115q15 -20 38 -26z" />
    <glyph glyph-name="sterling" unicode="&#xa3;" horiz-adv-x="579" 
d="M534 0h-433v297h-61v100h61v81q0 57 20 102t55 76t80.5 46.5t95.5 15.5q58 0 100.5 -16.5t81.5 -56.5l-91 -91q-20 20 -39.5 30t-51.5 10q-52 0 -82.5 -31t-30.5 -91v-75h113v-100h-113v-173h295v-124z" />
    <glyph glyph-name="currency" unicode="&#xa4;" horiz-adv-x="669" 
d="M610 96l-85 -86l-74 73q-54 -32 -117 -32q-62 0 -116 32l-74 -73l-86 86l74 73q-33 56 -33 117t33 117l-74 73l86 86l74 -73q54 32 116 32q63 0 117 -32l74 73l85 -86l-73 -73q32 -54 32 -117t-32 -117zM452 286q0 49 -34.5 83t-83.5 34t-83 -34t-34 -83t34 -83t83 -34
t83.5 34t34.5 83z" />
    <glyph glyph-name="yen" unicode="&#xa5;" horiz-adv-x="571" 
d="M568 712l-136 -270h74v-100h-125l-26 -50v-51h151v-100h-151v-141h-138v141h-152v100h152v51l-26 50h-126v100h75l-137 270h151l132 -288l132 288h150z" />
    <glyph glyph-name="brokenbar" unicode="&#xa6;" horiz-adv-x="353" 
d="M240 436h-130v350h130v-350zM240 -74h-130v350h130v-350z" />
    <glyph glyph-name="section" unicode="&#xa7;" horiz-adv-x="531" 
d="M473 274q0 -50 -28 -90t-62 -59q37 -18 59 -51.5t22 -87.5q0 -45 -16.5 -79.5t-44.5 -57.5t-63.5 -34.5t-73.5 -11.5t-73 10.5t-63 32t-45 55.5t-18 80h125q2 -28 21.5 -45.5t52.5 -17.5q34 0 53.5 17.5t19.5 46.5q0 23 -16 42.5t-54 31.5l-62 21q-75 25 -110.5 68
t-35.5 120q0 51 28 90.5t63 58.5q-35 19 -55.5 49.5t-20.5 81.5q0 73 50 123t142 50q94 0 142.5 -48t49.5 -124h-122q-1 32 -20 46.5t-50 14.5q-33 0 -51.5 -16.5t-18.5 -42.5q0 -44 67 -66l62 -20q75 -24 110.5 -67.5t35.5 -120.5zM348 269q0 24 -6.5 40t-18.5 28
q-23 21 -56 21q-36 0 -57 -21q-12 -12 -18 -28t-6 -40q0 -25 6.5 -40.5t17.5 -26.5q21 -21 57 -21q35 0 56 21q11 11 18 26.5t7 40.5z" />
    <glyph glyph-name="dieresis" unicode="&#xa8;" horiz-adv-x="500" 
d="M416 606h-111v125h111v-125zM195 606h-111v125h111v-125z" />
    <glyph glyph-name="copyright" unicode="&#xa9;" horiz-adv-x="844" 
d="M784 356q0 -74 -28 -140t-78 -116t-116 -78t-140 -28t-140 28t-116 78t-78 116t-28 140t28 140t78 116t116 78t140 28t140 -28t116 -78t78 -116t28 -140zM697 356q0 59 -21 111t-58.5 90t-88 59t-107.5 21t-108 -21t-88.5 -59t-58.5 -90t-21 -111t21 -111t59 -90
t88.5 -59t107.5 -21t107.5 21t88 59t58.5 90t21 111zM561 212q-29 -26 -60.5 -39t-71.5 -13q-78 0 -128.5 51.5t-50.5 144.5t50.5 145t128.5 52q40 0 70.5 -13t61.5 -40l-56 -56q-21 18 -37.5 25t-38.5 7q-46 0 -70 -32t-24 -88t24 -88t70 -32q22 0 38.5 7t37.5 25z" />
    <glyph glyph-name="ordfeminine" unicode="&#xaa;" horiz-adv-x="454" 
d="M392 296h-103v36q-22 -22 -44 -31t-57 -9q-68 0 -105 38q-35 35 -35 92q0 53 36.5 87t105.5 34h97v20q0 34 -18 49.5t-59 15.5q-29 0 -45.5 -7.5t-33.5 -26.5l-67 65q30 33 64 45.5t87 12.5q177 0 177 -147v-274zM287 449v23h-81q-56 0 -56 -47q0 -46 57 -46q23 0 38 4
t27 15q15 14 15 51z" />
    <glyph glyph-name="guillemotleft" unicode="&#xab;" horiz-adv-x="628" 
d="M562 27l-250 248l250 248v-155l-96 -93l96 -93v-155zM283 27l-249 248l249 248v-155l-94 -93l94 -93v-155z" />
    <glyph glyph-name="logicalnot" unicode="&#xac;" 
d="M497 94h-121v145h-330v121h451v-266z" />
    <glyph glyph-name="minus" unicode="&#xad;" 
d="M493 225h-443v121h443v-121z" />
    <glyph glyph-name="registered" unicode="&#xae;" horiz-adv-x="844" 
d="M784 356q0 -74 -28 -140t-78 -116t-116 -78t-140 -28t-140 28t-116 78t-78 116t-28 140t28 140t78 116t116 78t140 28t140 -28t116 -78t78 -116t28 -140zM698 356q0 59 -21 111t-58.5 90t-88 59t-108.5 21t-108.5 -21t-88 -59t-58.5 -90t-21 -111t21 -111t58.5 -90
t88 -59t108.5 -21t108.5 21t88 59t58.5 90t21 111zM585 164h-98l-70 149h-41v-149h-86v385h157q57 0 92.5 -35.5t35.5 -85.5q0 -37 -20 -63.5t-51 -38.5zM489 428q0 21 -15 35.5t-38 14.5h-60v-100h60q23 0 38 14.5t15 35.5z" />
    <glyph glyph-name="macron" unicode="&#xaf;" horiz-adv-x="500" 
d="M408 630h-316v87h316v-87z" />
    <glyph glyph-name="degree" unicode="&#xb0;" horiz-adv-x="478" 
d="M423 542q0 -38 -14 -71.5t-39.5 -59t-59 -39.5t-71.5 -14t-71.5 14t-59 39.5t-39.5 59t-14 71.5t14 71.5t39.5 59t59 40t71.5 14.5t71.5 -14.5t59 -40t39.5 -59t14 -71.5zM318 542q0 34 -23.5 57t-56.5 23t-55.5 -23t-22.5 -57t23 -57t56 -23t56 23t23 57z" />
    <glyph glyph-name="plusminus" unicode="&#xb1;" 
d="M493 341h-160v-161h-122v161h-161v121h161v161h122v-161h160v-121zM493 0h-443v122h443v-122z" />
    <glyph glyph-name="twosuperior" unicode="&#xb2;" horiz-adv-x="358" 
d="M315 285h-272v85l156 171q12 13 17 23.5t5 23.5q0 43 -42 43q-18 0 -30 -10t-12 -34h-94q0 60 38.5 94.5t97.5 34.5q60 0 98 -34.5t38 -93.5q0 -31 -12 -52t-40 -52l-105 -114h157v-85z" />
    <glyph glyph-name="threesuperior" unicode="&#xb3;" horiz-adv-x="368" 
d="M325 412q0 -63 -40.5 -97t-100.5 -34q-59 0 -100 33t-41 99h94q0 -23 13.5 -35.5t33.5 -12.5q22 0 34.5 13.5t12.5 36.5q0 21 -13.5 34.5t-35.5 13.5h-13v81h13q22 0 33 13t11 30q0 21 -12 32.5t-30 11.5t-30 -11t-12 -31h-94q0 58 39 92.5t97 34.5q59 0 97.5 -35.5
t38.5 -90.5q0 -32 -12.5 -52t-32.5 -32q22 -14 36 -36.5t14 -57.5z" />
    <glyph glyph-name="acute" unicode="&#xb4;" horiz-adv-x="500" 
d="M396 774l-114 -170h-87l64 170h137z" />
    <glyph glyph-name="mu" unicode="&#xb5;" horiz-adv-x="576" 
d="M503 0h-127v48q-25 -26 -59 -40t-71 -14q-27 0 -46 14v-199h-130v712h130v-315q0 -49 25.5 -72t60.5 -23q36 0 61.5 23t25.5 72v315h130v-521z" />
    <glyph glyph-name="paragraph" unicode="&#xb6;" horiz-adv-x="668" 
d="M585 -191h-130v779h-100v-779h-130v499q-37 0 -71.5 15.5t-61 43.5t-42 64.5t-15.5 77.5q0 96 63 149.5t168 53.5h319v-903z" />
    <glyph glyph-name="glyph122" unicode="&#xb7;" horiz-adv-x="285" 
d="M217 212h-149v148h149v-148z" />
    <glyph glyph-name="cedilla" unicode="&#xb8;" horiz-adv-x="500" 
d="M325 -60l-44 -146h-121l69 146h96z" />
    <glyph glyph-name="onesuperior" unicode="&#xb9;" horiz-adv-x="292" 
d="M223 285h-95v321l-90 -78v106l90 78h95v-427z" />
    <glyph glyph-name="ordmasculine" unicode="&#xba;" horiz-adv-x="462" 
d="M407 504q0 -59 -10 -95.5t-38 -65.5q-22 -23 -53.5 -37t-74.5 -14q-42 0 -74 14t-54 37q-28 29 -38 65.5t-10 95.5t10.5 96t37.5 66q22 23 54 37t74 14q43 0 74.5 -14t53.5 -37q27 -29 37.5 -66t10.5 -96zM302 504q0 38 -4.5 62.5t-18.5 38.5q-18 18 -48 18t-48 -18
q-14 -14 -18.5 -38.5t-4.5 -62.5t4.5 -62t18.5 -38q18 -18 48 -18t48 18q14 14 18.5 38t4.5 62z" />
    <glyph glyph-name="guillemotright" unicode="&#xbb;" horiz-adv-x="628" 
d="M595 275l-250 -248v155l94 93l-94 93v155zM316 275l-249 -248v155l95 93l-95 93v155z" />
    <glyph glyph-name="onequarter" unicode="&#xbc;" horiz-adv-x="836" 
d="M625 712l-337 -712h-102l337 712h102zM796 57h-33v-57h-90v57h-176v89l143 281h103l-144 -281h74v62h90v-62h33v-89zM223 285h-95v321l-90 -78v106l90 78h95v-427z" />
    <glyph glyph-name="onehalf" unicode="&#xbd;" horiz-adv-x="862" 
d="M819 0h-272v85l156 171q13 14 18 24t5 23q0 20 -11.5 31.5t-31.5 11.5q-17 0 -29 -10t-12 -34h-95q0 60 38.5 94.5t97.5 34.5q60 0 98 -34.5t38 -93.5q0 -31 -12 -52t-40 -52l-105 -114h157v-85zM620 712l-337 -712h-101l337 712h101zM223 285h-95v321l-90 -78v106l90 78
h95v-427z" />
    <glyph glyph-name="threequarters" unicode="&#xbe;" horiz-adv-x="865" 
d="M657 712l-337 -712h-102l337 712h102zM325 412q0 -63 -40.5 -97t-100.5 -34q-59 0 -100 33t-41 99h94q0 -23 13.5 -35.5t33.5 -12.5q22 0 34.5 13.5t12.5 36.5q0 21 -13.5 34.5t-35.5 13.5h-13v81h13q22 0 33 13t11 30q0 21 -12 32.5t-30 11.5t-30 -11t-12 -31h-94
q0 58 39 92.5t97 34.5q59 0 97.5 -35.5t38.5 -90.5q0 -32 -12.5 -52t-32.5 -32q22 -14 36 -36.5t14 -57.5zM825 57h-33v-57h-90v57h-176v89l143 281h103l-144 -281h74v62h90v-62h33v-89z" />
    <glyph glyph-name="questiondown" unicode="&#xbf;" horiz-adv-x="523" 
d="M457 4q0 -45 -16 -82.5t-45 -64t-67.5 -40.5t-82.5 -14q-88 0 -149 54t-61 146q0 35 12.5 64.5t36.5 60.5l74 99q8 10 13 24.5t5 26.5v20h130v-30q0 -31 -8.5 -54t-29.5 -50l-74 -95q-13 -17 -21 -34t-8 -33q0 -36 21.5 -59t58.5 -23q38 0 59.5 24t21.5 60h130zM311 388
h-138v133h138v-133z" />
    <glyph glyph-name="Agrave" unicode="&#xc0;" horiz-adv-x="638" 
d="M633 0h-145l-42 126h-253l-43 -126h-145l259 712h109zM409 243l-87 259l-90 -259h177zM372 781h-87l-114 170h137z" />
    <glyph glyph-name="Aacute" unicode="&#xc1;" horiz-adv-x="638" 
d="M633 0h-145l-42 126h-253l-43 -126h-145l259 712h109zM409 243l-87 259l-90 -259h177zM463 951l-114 -170h-87l64 170h137z" />
    <glyph glyph-name="Acircumflex" unicode="&#xc2;" horiz-adv-x="638" 
d="M633 0h-145l-42 126h-253l-43 -126h-145l259 712h109zM409 243l-87 259l-90 -259h177zM501 781h-101l-83 91l-83 -91h-101l132 169h104z" />
    <glyph glyph-name="Atilde" unicode="&#xc3;" horiz-adv-x="638" 
d="M633 0h-145l-42 126h-253l-43 -126h-145l259 712h109zM497 851q-33 -33 -58.5 -46t-54.5 -13q-21 0 -38 5t-39 18q-31 18 -56 18q-15 0 -28 -5.5t-31 -23.5l-56 57q33 33 58 46t54 13q22 0 39 -5t38 -18q30 -18 55 -18q15 0 28 5.5t31 23.5zM409 243l-87 259l-90 -259
h177z" />
    <glyph glyph-name="Adieresis" unicode="&#xc4;" horiz-adv-x="638" 
d="M633 0h-145l-42 126h-253l-43 -126h-145l259 712h109zM409 243l-87 259l-90 -259h177zM483 783h-111v125h111v-125zM262 783h-111v125h111v-125z" />
    <glyph glyph-name="Aring" unicode="&#xc5;" horiz-adv-x="638" 
d="M448 884q0 -54 -38.5 -92.5t-92.5 -38.5t-92.5 38.5t-38.5 92.5t38.5 92.5t92.5 38.5t92.5 -38t38.5 -93zM375 884q0 24 -17 41t-41 17t-41 -17t-17 -41t17 -41.5t41 -17.5t41 17.5t17 41.5zM633 0h-145l-42 126h-253l-43 -126h-145l259 712h109zM409 243l-87 259
l-90 -259h177z" />
    <glyph glyph-name="AE" unicode="&#xc6;" horiz-adv-x="979" 
d="M926 0h-468v156h-225l-81 -156h-149l372 712h551v-124h-330v-168h282v-124h-282v-172h330v-124zM458 273v315l-165 -315h165z" />
    <glyph glyph-name="Ccedilla" unicode="&#xc7;" horiz-adv-x="562" 
d="M519 76q-42 -41 -88 -61.5t-110 -20.5q-114 0 -192 78q-47 47 -58.5 106.5t-11.5 177.5t11.5 177.5t58.5 106.5q78 78 192 78q64 0 110 -20.5t88 -61.5l-92 -92q-26 26 -48.5 38t-57.5 12q-56 0 -88 -37q-11 -12 -17.5 -26t-10 -35t-5.5 -54t-2 -86t2 -86t5.5 -54t10 -35
t17.5 -26q32 -37 88 -37q35 0 57.5 12t48.5 38zM379 -60l-44 -146h-121l69 146h96z" />
    <glyph glyph-name="Egrave" unicode="&#xc8;" horiz-adv-x="605" 
d="M552 0h-469v712h469v-124h-330v-167h281v-124h-281v-173h330v-124zM365 781h-87l-114 170h137z" />
    <glyph glyph-name="Eacute" unicode="&#xc9;" horiz-adv-x="605" 
d="M552 0h-469v712h469v-124h-330v-167h281v-124h-281v-173h330v-124zM455 951l-114 -170h-87l64 170h137z" />
    <glyph glyph-name="Ecircumflex" unicode="&#xca;" horiz-adv-x="605" 
d="M552 0h-469v712h469v-124h-330v-167h281v-124h-281v-173h330v-124zM494 781h-101l-83 91l-83 -91h-101l132 169h104z" />
    <glyph glyph-name="Edieresis" unicode="&#xcb;" horiz-adv-x="605" 
d="M552 0h-469v712h469v-124h-330v-167h281v-124h-281v-173h330v-124zM476 783h-111v125h111v-125zM255 783h-111v125h111v-125z" />
    <glyph glyph-name="Igrave" unicode="&#xcc;" horiz-adv-x="305" 
d="M222 0h-139v712h139v-712zM253 781h-87l-114 170h137z" />
    <glyph glyph-name="Iacute" unicode="&#xcd;" horiz-adv-x="305" 
d="M222 0h-139v712h139v-712zM284 951l-114 -170h-87l64 170h137z" />
    <glyph glyph-name="Icircumflex" unicode="&#xce;" horiz-adv-x="305" 
d="M222 0h-139v712h139v-712zM336 781h-101l-83 91l-83 -91h-101l132 169h104z" />
    <glyph glyph-name="Idieresis" unicode="&#xcf;" horiz-adv-x="305" 
d="M222 0h-139v712h139v-712zM316 783h-111v125h111v-125zM95 783h-111v125h111v-125z" />
    <glyph glyph-name="Eth" unicode="&#xd0;" horiz-adv-x="682" 
d="M623 356q0 -64 -1.5 -100t-7.5 -66.5t-18.5 -56t-35.5 -50.5q-36 -40 -87 -61.5t-112 -21.5h-255v307h-69v106h69v299h257q124 0 197 -84q22 -25 35 -50.5t19 -56t7.5 -67t1.5 -98.5zM484 354q0 48 -1 78.5t-3.5 49t-7.5 31t-13 24.5q-37 52 -109 52h-105v-176h116v-106
h-116v-184h105q76 0 111 53q8 11 12.5 23t6.5 29.5t3 46.5t1 79z" />
    <glyph glyph-name="Ntilde" unicode="&#xd1;" horiz-adv-x="711" 
d="M628 0h-124l-282 437v-437h-139v712h124l282 -436v436h139v-712zM536 851q-33 -33 -58.5 -46t-54.5 -13q-21 0 -38 5t-39 18q-31 18 -56 18q-15 0 -28 -5.5t-31 -23.5l-56 57q33 33 58 46t54 13q22 0 39 -5t38 -18q30 -18 55 -18q15 0 28 5.5t31 23.5z" />
    <glyph glyph-name="Ograve" unicode="&#xd2;" horiz-adv-x="644" 
d="M585 356q0 -116 -11.5 -176t-59.5 -108q-39 -39 -86 -58.5t-106 -19.5t-106.5 19.5t-86.5 58.5q-47 47 -58.5 106.5t-11.5 177.5t11.5 177.5t58.5 106.5q39 39 86.5 58.5t106.5 19.5t106 -19.5t86 -58.5q48 -48 59.5 -108t11.5 -176zM446 356q0 53 -1.5 86t-5.5 54
t-10.5 34.5t-17.5 25.5q-33 38 -89 38q-28 0 -51.5 -10t-38.5 -28q-11 -12 -17 -25.5t-10 -35t-5.5 -53.5t-1.5 -86t1.5 -86.5t5.5 -53.5t10.5 -34.5t16.5 -25.5q15 -18 38.5 -28t51.5 -10q56 0 89 38q11 12 17.5 26t10.5 34.5t5.5 54t1.5 85.5zM377 781h-87l-114 170h137z
" />
    <glyph glyph-name="Oacute" unicode="&#xd3;" horiz-adv-x="644" 
d="M585 356q0 -116 -11.5 -176t-59.5 -108q-39 -39 -86 -58.5t-106 -19.5t-106.5 19.5t-86.5 58.5q-47 47 -58.5 106.5t-11.5 177.5t11.5 177.5t58.5 106.5q39 39 86.5 58.5t106.5 19.5t106 -19.5t86 -58.5q48 -48 59.5 -108t11.5 -176zM446 356q0 53 -1.5 86t-5.5 54
t-10.5 34.5t-17.5 25.5q-33 38 -89 38q-28 0 -51.5 -10t-38.5 -28q-11 -12 -17 -25.5t-10 -35t-5.5 -53.5t-1.5 -86t1.5 -86.5t5.5 -53.5t10.5 -34.5t16.5 -25.5q15 -18 38.5 -28t51.5 -10q56 0 89 38q11 12 17.5 26t10.5 34.5t5.5 54t1.5 85.5zM468 951l-114 -170h-87
l64 170h137z" />
    <glyph glyph-name="Ocircumflex" unicode="&#xd4;" horiz-adv-x="644" 
d="M585 356q0 -116 -11.5 -176t-59.5 -108q-39 -39 -86 -58.5t-106 -19.5t-106.5 19.5t-86.5 58.5q-47 47 -58.5 106.5t-11.5 177.5t11.5 177.5t58.5 106.5q39 39 86.5 58.5t106.5 19.5t106 -19.5t86 -58.5q48 -48 59.5 -108t11.5 -176zM446 356q0 53 -1.5 86t-5.5 54
t-10.5 34.5t-17.5 25.5q-33 38 -89 38q-28 0 -51.5 -10t-38.5 -28q-11 -12 -17 -25.5t-10 -35t-5.5 -53.5t-1.5 -86t1.5 -86.5t5.5 -53.5t10.5 -34.5t16.5 -25.5q15 -18 38.5 -28t51.5 -10q56 0 89 38q11 12 17.5 26t10.5 34.5t5.5 54t1.5 85.5zM506 781h-101l-83 91
l-83 -91h-101l132 169h104z" />
    <glyph glyph-name="Otilde" unicode="&#xd5;" horiz-adv-x="644" 
d="M585 356q0 -116 -11.5 -176t-59.5 -108q-39 -39 -86 -58.5t-106 -19.5t-106.5 19.5t-86.5 58.5q-47 47 -58.5 106.5t-11.5 177.5t11.5 177.5t58.5 106.5q39 39 86.5 58.5t106.5 19.5t106 -19.5t86 -58.5q48 -48 59.5 -108t11.5 -176zM446 356q0 53 -1.5 86t-5.5 54
t-10.5 34.5t-17.5 25.5q-33 38 -89 38q-28 0 -51.5 -10t-38.5 -28q-11 -12 -17 -25.5t-10 -35t-5.5 -53.5t-1.5 -86t1.5 -86.5t5.5 -53.5t10.5 -34.5t16.5 -25.5q15 -18 38.5 -28t51.5 -10q56 0 89 38q11 12 17.5 26t10.5 34.5t5.5 54t1.5 85.5zM502 851q-33 -33 -58.5 -46
t-54.5 -13q-21 0 -38 5t-39 18q-31 18 -56 18q-15 0 -28 -5.5t-31 -23.5l-56 57q33 33 58 46t54 13q22 0 39 -5t38 -18q30 -18 55 -18q15 0 28 5.5t31 23.5z" />
    <glyph glyph-name="Odieresis" unicode="&#xd6;" horiz-adv-x="644" 
d="M585 356q0 -116 -11.5 -176t-59.5 -108q-39 -39 -86 -58.5t-106 -19.5t-106.5 19.5t-86.5 58.5q-47 47 -58.5 106.5t-11.5 177.5t11.5 177.5t58.5 106.5q39 39 86.5 58.5t106.5 19.5t106 -19.5t86 -58.5q48 -48 59.5 -108t11.5 -176zM446 356q0 53 -1.5 86t-5.5 54
t-10.5 34.5t-17.5 25.5q-33 38 -89 38q-28 0 -51.5 -10t-38.5 -28q-11 -12 -17 -25.5t-10 -35t-5.5 -53.5t-1.5 -86t1.5 -86.5t5.5 -53.5t10.5 -34.5t16.5 -25.5q15 -18 38.5 -28t51.5 -10q56 0 89 38q11 12 17.5 26t10.5 34.5t5.5 54t1.5 85.5zM488 783h-111v125h111v-125z
M267 783h-111v125h111v-125z" />
    <glyph glyph-name="multiply" unicode="&#xd7;" 
d="M494 145l-82 -82l-141 141l-140 -141l-82 82l141 141l-141 141l82 82l140 -141l141 141l82 -82l-141 -141z" />
    <glyph glyph-name="Oslash" unicode="&#xd8;" horiz-adv-x="652" 
d="M585 356q0 -116 -11.5 -176t-59.5 -108q-39 -39 -86 -58.5t-106 -19.5q-65 0 -113 22l-29 -60h-99l53 111l-5 5q-47 47 -58.5 106.5t-11.5 177.5t11.5 177.5t58.5 106.5q39 39 86.5 58.5t106.5 19.5q65 0 113 -22l29 60h98l-53 -111l5 -5q48 -48 59.5 -108t11.5 -176z
M446 356q0 57 -2.5 93t-7.5 58l-178 -372q28 -17 64 -17q56 0 89 38q11 12 17.5 26t10.5 34.5t5.5 54t1.5 85.5zM385 578q-26 16 -63 16q-28 0 -51.5 -10t-38.5 -28q-11 -12 -17 -25.5t-10 -35t-5.5 -53.5t-1.5 -86q0 -61 2 -95.5t7 -55.5z" />
    <glyph glyph-name="Ugrave" unicode="&#xd9;" horiz-adv-x="668" 
d="M596 244q0 -56 -20 -102t-56 -79.5t-84 -51t-102 -17.5t-102 17.5t-84 51t-56 79.5t-20 102v468h139v-463q0 -61 33.5 -96t89.5 -35q57 0 90.5 35t33.5 96v463h138v-468zM389 781h-87l-114 170h137z" />
    <glyph glyph-name="Uacute" unicode="&#xda;" horiz-adv-x="668" 
d="M596 244q0 -56 -20 -102t-56 -79.5t-84 -51t-102 -17.5t-102 17.5t-84 51t-56 79.5t-20 102v468h139v-463q0 -61 33.5 -96t89.5 -35q57 0 90.5 35t33.5 96v463h138v-468zM480 951l-114 -170h-87l64 170h137z" />
    <glyph glyph-name="Ucircumflex" unicode="&#xdb;" horiz-adv-x="668" 
d="M596 244q0 -56 -20 -102t-56 -79.5t-84 -51t-102 -17.5t-102 17.5t-84 51t-56 79.5t-20 102v468h139v-463q0 -61 33.5 -96t89.5 -35q57 0 90.5 35t33.5 96v463h138v-468zM518 781h-101l-83 91l-83 -91h-101l132 169h104z" />
    <glyph glyph-name="Udieresis" unicode="&#xdc;" horiz-adv-x="668" 
d="M596 244q0 -56 -20 -102t-56 -79.5t-84 -51t-102 -17.5t-102 17.5t-84 51t-56 79.5t-20 102v468h139v-463q0 -61 33.5 -96t89.5 -35q57 0 90.5 35t33.5 96v463h138v-468zM500 783h-111v125h111v-125zM279 783h-111v125h111v-125z" />
    <glyph glyph-name="Yacute" unicode="&#xdd;" horiz-adv-x="572" 
d="M569 712l-214 -420v-292h-138v292l-214 420h151l133 -287l131 287h151zM431 951l-114 -170h-87l64 170h137z" />
    <glyph glyph-name="Thorn" unicode="&#xde;" horiz-adv-x="633" 
d="M594 360q0 -46 -16 -86t-46.5 -70.5t-74.5 -48t-98 -17.5h-137v-138h-139v712h139v-131h137q54 0 98 -17t74.5 -47.5t46.5 -70.5t16 -86zM455 360q0 44 -28 70.5t-75 26.5h-130v-195h130q47 0 75 27t28 71z" />
    <glyph glyph-name="germandbls" unicode="&#xdf;" horiz-adv-x="574" 
d="M516 161q0 -79 -41 -119q-42 -42 -126 -42h-52v110h26q29 0 45 15q17 16 17 47v144q0 30 -15 45q-16 16 -45 16h-28v102h28q26 0 43 15t17 45q0 28 -19 45q-22 21 -70 21q-50 0 -71.5 -23.5t-21.5 -70.5v-511h-130v521q0 100 61 148.5t164 48.5q99 0 158 -44t59 -131
q0 -42 -17 -69t-44 -44q31 -16 46.5 -40.5t15.5 -68.5v-160z" />
    <glyph glyph-name="agrave" unicode="&#xe0;" horiz-adv-x="534" 
d="M467 0h-127v45q-27 -27 -55.5 -38.5t-72.5 -11.5q-87 0 -133 46q-43 45 -43 117q0 66 45.5 108.5t132.5 42.5h123v26q0 43 -22.5 62.5t-74.5 19.5q-36 0 -57.5 -9.5t-42.5 -33.5l-83 81q37 41 79 56.5t109 15.5q222 0 222 -184v-343zM337 192v28h-103q-73 0 -73 -59
q0 -28 19 -44t56 -16q30 0 48 5t34 20q19 18 19 66zM316 604h-87l-114 170h137z" />
    <glyph glyph-name="aacute" unicode="&#xe1;" horiz-adv-x="534" 
d="M467 0h-127v45q-27 -27 -55.5 -38.5t-72.5 -11.5q-87 0 -133 46q-43 45 -43 117q0 66 45.5 108.5t132.5 42.5h123v26q0 43 -22.5 62.5t-74.5 19.5q-36 0 -57.5 -9.5t-42.5 -33.5l-83 81q37 41 79 56.5t109 15.5q222 0 222 -184v-343zM337 192v28h-103q-73 0 -73 -59
q0 -28 19 -44t56 -16q30 0 48 5t34 20q19 18 19 66zM407 774l-114 -170h-87l64 170h137z" />
    <glyph glyph-name="acircumflex" unicode="&#xe2;" horiz-adv-x="534" 
d="M467 0h-127v45q-27 -27 -55.5 -38.5t-72.5 -11.5q-87 0 -133 46q-43 45 -43 117q0 66 45.5 108.5t132.5 42.5h123v26q0 43 -22.5 62.5t-74.5 19.5q-36 0 -57.5 -9.5t-42.5 -33.5l-83 81q37 41 79 56.5t109 15.5q222 0 222 -184v-343zM337 192v28h-103q-73 0 -73 -59
q0 -28 19 -44t56 -16q30 0 48 5t34 20q19 18 19 66zM445 604h-101l-83 91l-83 -91h-101l132 169h104z" />
    <glyph glyph-name="atilde" unicode="&#xe3;" horiz-adv-x="534" 
d="M467 0h-127v45q-27 -27 -55.5 -38.5t-72.5 -11.5q-87 0 -133 46q-43 45 -43 117q0 66 45.5 108.5t132.5 42.5h123v26q0 43 -22.5 62.5t-74.5 19.5q-36 0 -57.5 -9.5t-42.5 -33.5l-83 81q37 41 79 56.5t109 15.5q222 0 222 -184v-343zM337 192v28h-103q-73 0 -73 -59
q0 -28 19 -44t56 -16q30 0 48 5t34 20q19 18 19 66zM441 674q-33 -33 -58.5 -46t-54.5 -13q-21 0 -38 5t-39 18q-31 18 -56 18q-15 0 -28 -5.5t-31 -23.5l-56 57q33 33 58 46t54 13q22 0 39 -5t38 -18q30 -18 55 -18q15 0 28 5.5t31 23.5z" />
    <glyph glyph-name="adieresis" unicode="&#xe4;" horiz-adv-x="534" 
d="M467 0h-127v45q-27 -27 -55.5 -38.5t-72.5 -11.5q-87 0 -133 46q-43 45 -43 117q0 66 45.5 108.5t132.5 42.5h123v26q0 43 -22.5 62.5t-74.5 19.5q-36 0 -57.5 -9.5t-42.5 -33.5l-83 81q37 41 79 56.5t109 15.5q222 0 222 -184v-343zM337 192v28h-103q-73 0 -73 -59
q0 -28 19 -44t56 -16q30 0 48 5t34 20q19 18 19 66zM427 606h-111v125h111v-125zM206 606h-111v125h111v-125z" />
    <glyph glyph-name="aring" unicode="&#xe5;" horiz-adv-x="534" 
d="M467 0h-127v45q-27 -27 -55.5 -38.5t-72.5 -11.5q-87 0 -133 46q-43 45 -43 117q0 66 45.5 108.5t132.5 42.5h123v26q0 43 -22.5 62.5t-74.5 19.5q-36 0 -57.5 -9.5t-42.5 -33.5l-83 81q37 41 79 56.5t109 15.5q222 0 222 -184v-343zM337 192v28h-103q-73 0 -73 -59
q0 -28 19 -44t56 -16q30 0 48 5t34 20q19 18 19 66zM392 715q0 -54 -38.5 -92.5t-92.5 -38.5t-92.5 38.5t-38.5 92.5t38.5 92.5t92.5 38.5t92.5 -38t38.5 -93zM319 715q0 24 -17 41t-41 17t-41 -17t-17 -41t17 -41.5t41 -17.5t41 17.5t17 41.5z" />
    <glyph glyph-name="ae" unicode="&#xe6;" horiz-adv-x="838" 
d="M791 220h-326q0 -52 30.5 -84t83.5 -32q41 0 66.5 11.5t51.5 37.5l79 -77q-43 -43 -87 -62.5t-111 -19.5q-56 0 -103 17.5t-80 55.5q-40 -44 -81.5 -58.5t-101.5 -14.5q-86 0 -133 47q-43 45 -43 117q0 66 45.5 108.5t132.5 42.5h123v26q0 43 -22.5 62.5t-74.5 19.5
q-36 0 -57.5 -9.5t-42.5 -33.5l-83 81q37 41 79 56.5t109 15.5q119 0 171 -57q56 57 148 57q106 0 166.5 -69.5t60.5 -179.5v-58zM337 192v28h-103q-73 0 -73 -59q0 -28 19 -44t56 -16q30 0 48 5t34 20q19 18 19 66zM663 309q-1 17 -3.5 29.5t-8.5 26.5q-11 25 -33 39.5
t-54 14.5q-31 0 -53.5 -14.5t-33.5 -39.5q-6 -14 -8.5 -26.5t-3.5 -29.5h198z" />
    <glyph glyph-name="ccedilla" unicode="&#xe7;" horiz-adv-x="480" 
d="M452 65q-68 -71 -172 -71q-43 0 -83 13t-74.5 43.5t-55 83t-20.5 127.5t20.5 127.5t54.5 82.5t74.5 43t83.5 13q54 0 96 -17t76 -53l-88 -88q-21 22 -40 31.5t-44 9.5q-46 0 -74 -34q-29 -36 -29 -115q0 -80 29 -116q28 -34 74 -34q25 0 44 9.5t40 31.5zM325 -60
l-44 -146h-121l69 146h96z" />
    <glyph glyph-name="egrave" unicode="&#xe8;" horiz-adv-x="548" 
d="M501 220h-326q0 -52 30.5 -84t83.5 -32q41 0 66.5 11.5t51.5 37.5l79 -77q-43 -43 -87 -62.5t-111 -19.5q-50 0 -92.5 13t-76 43t-53 82.5t-19.5 128.5q0 126 62 196t165 70q106 0 166.5 -69.5t60.5 -179.5v-58zM373 309q-1 17 -3.5 29.5t-8.5 26.5q-11 25 -33 39.5
t-54 14.5q-31 0 -53.5 -14.5t-33.5 -39.5q-6 -14 -8.5 -26.5t-3.5 -29.5h198zM332 604h-87l-114 170h137z" />
    <glyph glyph-name="eacute" unicode="&#xe9;" horiz-adv-x="548" 
d="M501 220h-326q0 -52 30.5 -84t83.5 -32q41 0 66.5 11.5t51.5 37.5l79 -77q-43 -43 -87 -62.5t-111 -19.5q-50 0 -92.5 13t-76 43t-53 82.5t-19.5 128.5q0 126 62 196t165 70q106 0 166.5 -69.5t60.5 -179.5v-58zM373 309q-1 17 -3.5 29.5t-8.5 26.5q-11 25 -33 39.5
t-54 14.5q-31 0 -53.5 -14.5t-33.5 -39.5q-6 -14 -8.5 -26.5t-3.5 -29.5h198zM423 774l-114 -170h-87l64 170h137z" />
    <glyph glyph-name="ecircumflex" unicode="&#xea;" horiz-adv-x="548" 
d="M501 220h-326q0 -52 30.5 -84t83.5 -32q41 0 66.5 11.5t51.5 37.5l79 -77q-43 -43 -87 -62.5t-111 -19.5q-50 0 -92.5 13t-76 43t-53 82.5t-19.5 128.5q0 126 62 196t165 70q106 0 166.5 -69.5t60.5 -179.5v-58zM461 604h-101l-83 91l-83 -91h-101l132 169h104zM373 309
q-1 17 -3.5 29.5t-8.5 26.5q-11 25 -33 39.5t-54 14.5q-31 0 -53.5 -14.5t-33.5 -39.5q-6 -14 -8.5 -26.5t-3.5 -29.5h198z" />
    <glyph glyph-name="edieresis" unicode="&#xeb;" horiz-adv-x="548" 
d="M501 220h-326q0 -52 30.5 -84t83.5 -32q41 0 66.5 11.5t51.5 37.5l79 -77q-43 -43 -87 -62.5t-111 -19.5q-50 0 -92.5 13t-76 43t-53 82.5t-19.5 128.5q0 126 62 196t165 70q106 0 166.5 -69.5t60.5 -179.5v-58zM373 309q-1 17 -3.5 29.5t-8.5 26.5q-11 25 -33 39.5
t-54 14.5q-31 0 -53.5 -14.5t-33.5 -39.5q-6 -14 -8.5 -26.5t-3.5 -29.5h198zM443 606h-111v125h111v-125zM222 606h-111v125h111v-125z" />
    <glyph glyph-name="igrave" unicode="&#xec;" horiz-adv-x="275" 
d="M203 0h-130v521h130v-521zM200 604h-87l-114 170h137z" />
    <glyph glyph-name="iacute" unicode="&#xed;" horiz-adv-x="275" 
d="M203 0h-130v521h130v-521zM274 774l-114 -170h-87l64 170h137z" />
    <glyph glyph-name="icircumflex" unicode="&#xee;" horiz-adv-x="275" 
d="M203 0h-130v521h130v-521zM321 604h-101l-83 91l-83 -91h-101l132 169h104z" />
    <glyph glyph-name="idieresis" unicode="&#xef;" horiz-adv-x="275" 
d="M203 0h-130v521h130v-521zM305 606h-111v125h111v-125zM84 606h-111v125h111v-125z" />
    <glyph glyph-name="eth" unicode="&#xf0;" 
d="M486 254q0 -73 -12.5 -118.5t-45.5 -79.5q-27 -28 -66 -45t-91 -17t-91 17t-66 45q-33 34 -45.5 79.5t-12.5 118.5q0 72 12.5 117.5t45.5 79.5q32 34 89 49q29 8 58 8h9q8 -1 9 -1l-34 62h-114v91h68l-31 60h139l31 -60h92v-91h-46l40 -77q20 -38 31.5 -65t18 -52.5
t9.5 -54t3 -66.5zM356 254q0 46 -5 74t-22 46q-22 22 -58 22q-35 0 -57 -22q-17 -18 -22.5 -46.5t-5.5 -73.5q0 -46 5.5 -74.5t22.5 -46.5q22 -22 57 -22q36 0 58 22q17 18 22 46.5t5 74.5z" />
    <glyph glyph-name="ntilde" unicode="&#xf1;" horiz-adv-x="573" 
d="M506 0h-130v315q0 49 -25.5 72t-60.5 23q-36 0 -61.5 -23t-25.5 -72v-315h-130v521h127v-48q25 26 59 40t71 14q77 0 123 -46q30 -30 41.5 -66t11.5 -82v-333zM470 674q-33 -33 -58.5 -46t-54.5 -13q-21 0 -38 5t-39 18q-31 18 -56 18q-15 0 -28 -5.5t-31 -23.5l-56 57
q33 33 58 46t54 13q22 0 39 -5t38 -18q30 -18 55 -18q15 0 28 5.5t31 23.5z" />
    <glyph glyph-name="ograve" unicode="&#xf2;" 
d="M492 261q0 -75 -12.5 -121.5t-46.5 -81.5q-27 -28 -67.5 -46t-94.5 -18t-94 18t-67 46q-34 35 -46.5 81.5t-12.5 121.5q0 74 12.5 120.5t46.5 81.5q27 29 67 46.5t94 17.5t94.5 -18t67.5 -46q34 -35 46.5 -81.5t12.5 -120.5zM362 261q0 48 -5.5 78t-24.5 48
q-23 23 -61 23q-37 0 -60 -23q-18 -18 -24 -48t-6 -78t6 -78t24 -49q23 -23 60 -23q38 0 61 23q19 19 24.5 49t5.5 78zM323 604h-87l-114 170h137z" />
    <glyph glyph-name="oacute" unicode="&#xf3;" 
d="M492 261q0 -75 -12.5 -121.5t-46.5 -81.5q-27 -28 -67.5 -46t-94.5 -18t-94 18t-67 46q-34 35 -46.5 81.5t-12.5 121.5q0 74 12.5 120.5t46.5 81.5q27 29 67 46.5t94 17.5t94.5 -18t67.5 -46q34 -35 46.5 -81.5t12.5 -120.5zM362 261q0 48 -5.5 78t-24.5 48
q-23 23 -61 23q-37 0 -60 -23q-18 -18 -24 -48t-6 -78t6 -78t24 -49q23 -23 60 -23q38 0 61 23q19 19 24.5 49t5.5 78zM418 774l-114 -170h-87l64 170h137z" />
    <glyph glyph-name="ocircumflex" unicode="&#xf4;" 
d="M492 261q0 -75 -12.5 -121.5t-46.5 -81.5q-27 -28 -67.5 -46t-94.5 -18t-94 18t-67 46q-34 35 -46.5 81.5t-12.5 121.5q0 74 12.5 120.5t46.5 81.5q27 29 67 46.5t94 17.5t94.5 -18t67.5 -46q34 -35 46.5 -81.5t12.5 -120.5zM362 261q0 48 -5.5 78t-24.5 48
q-23 23 -61 23q-37 0 -60 -23q-18 -18 -24 -48t-6 -78t6 -78t24 -49q23 -23 60 -23q38 0 61 23q19 19 24.5 49t5.5 78zM456 604h-101l-83 91l-83 -91h-101l132 169h104z" />
    <glyph glyph-name="otilde" unicode="&#xf5;" 
d="M492 261q0 -75 -12.5 -121.5t-46.5 -81.5q-27 -28 -67.5 -46t-94.5 -18t-94 18t-67 46q-34 35 -46.5 81.5t-12.5 121.5q0 74 12.5 120.5t46.5 81.5q27 29 67 46.5t94 17.5t94.5 -18t67.5 -46q34 -35 46.5 -81.5t12.5 -120.5zM362 261q0 48 -5.5 78t-24.5 48
q-23 23 -61 23q-37 0 -60 -23q-18 -18 -24 -48t-6 -78t6 -78t24 -49q23 -23 60 -23q38 0 61 23q19 19 24.5 49t5.5 78zM452 674q-33 -33 -58.5 -46t-54.5 -13q-21 0 -38 5t-39 18q-31 18 -56 18q-15 0 -28 -5.5t-31 -23.5l-56 57q33 33 58 46t54 13q22 0 39 -5t38 -18
q30 -18 55 -18q15 0 28 5.5t31 23.5z" />
    <glyph glyph-name="odieresis" unicode="&#xf6;" 
d="M492 261q0 -75 -12.5 -121.5t-46.5 -81.5q-27 -28 -67.5 -46t-94.5 -18t-94 18t-67 46q-34 35 -46.5 81.5t-12.5 121.5q0 74 12.5 120.5t46.5 81.5q27 29 67 46.5t94 17.5t94.5 -18t67.5 -46q34 -35 46.5 -81.5t12.5 -120.5zM362 261q0 48 -5.5 78t-24.5 48
q-23 23 -61 23q-37 0 -60 -23q-18 -18 -24 -48t-6 -78t6 -78t24 -49q23 -23 60 -23q38 0 61 23q19 19 24.5 49t5.5 78zM438 606h-111v125h111v-125zM217 606h-111v125h111v-125z" />
    <glyph glyph-name="divide" unicode="&#xf7;" 
d="M497 225h-451v121h451v-121zM337 423h-130v130h130v-130zM337 18h-130v130h130v-130z" />
    <glyph glyph-name="oslash" unicode="&#xf8;" 
d="M431 464q30 -23 45.5 -76.5t15.5 -126.5q0 -75 -12.5 -121.5t-46.5 -81.5q-27 -28 -67.5 -46t-94.5 -18q-58 0 -104 23l-36 -61h-79l59 101l-1 1q-34 34 -46.5 80.5t-12.5 122.5q0 74 12.5 120.5t46.5 81.5q27 29 67 46.5t94 17.5q61 0 105 -22l35 60h80zM362 261
q0 53 -8 85l-131 -222q21 -13 48 -13q38 0 61 23q19 19 24.5 49t5.5 78zM320 397q-21 13 -49 13q-37 0 -60 -23q-18 -18 -24 -48t-6 -78q0 -58 7 -86z" />
    <glyph glyph-name="ugrave" unicode="&#xf9;" horiz-adv-x="573" 
d="M500 0h-127v48q-25 -26 -59 -40t-71 -14q-77 0 -123 46q-30 30 -41.5 66t-11.5 82v333h130v-315q0 -49 25.5 -72t60.5 -23q36 0 61.5 23t25.5 72v315h130v-521zM338 604h-87l-114 170h137z" />
    <glyph glyph-name="uacute" unicode="&#xfa;" horiz-adv-x="573" 
d="M500 0h-127v48q-25 -26 -59 -40t-71 -14q-77 0 -123 46q-30 30 -41.5 66t-11.5 82v333h130v-315q0 -49 25.5 -72t60.5 -23q36 0 61.5 23t25.5 72v315h130v-521zM429 774l-114 -170h-87l64 170h137z" />
    <glyph glyph-name="ucircumflex" unicode="&#xfb;" horiz-adv-x="573" 
d="M500 0h-127v48q-25 -26 -59 -40t-71 -14q-77 0 -123 46q-30 30 -41.5 66t-11.5 82v333h130v-315q0 -49 25.5 -72t60.5 -23q36 0 61.5 23t25.5 72v315h130v-521zM467 604h-101l-83 91l-83 -91h-101l132 169h104z" />
    <glyph glyph-name="udieresis" unicode="&#xfc;" horiz-adv-x="573" 
d="M500 0h-127v48q-25 -26 -59 -40t-71 -14q-77 0 -123 46q-30 30 -41.5 66t-11.5 82v333h130v-315q0 -49 25.5 -72t60.5 -23q36 0 61.5 23t25.5 72v315h130v-521zM449 606h-111v125h111v-125zM228 606h-111v125h111v-125z" />
    <glyph glyph-name="yacute" unicode="&#xfd;" horiz-adv-x="494" 
d="M490 521l-223 -605q-17 -45 -39 -67q-21 -22 -49.5 -31t-62.5 -9h-51v117h30q28 0 41.5 9.5t23.5 37.5l22 64l-178 484h137l108 -322l104 322h137zM390 774l-114 -170h-87l64 170h137z" />
    <glyph glyph-name="thorn" unicode="&#xfe;" horiz-adv-x="562" 
d="M509 261q0 -38 -1 -66t-6 -54q-11 -65 -46 -100q-22 -22 -55.5 -34.5t-71.5 -12.5q-40 0 -70.5 12t-55.5 40v-237h-130v903h130v-237q25 28 55.5 40t70.5 12q38 0 71.5 -12.5t55.5 -34.5q35 -34 44 -86.5t9 -132.5zM379 261q0 36 -3 62t-12 45.5t-27 30.5t-46 11t-46 -11
t-27 -30.5t-12 -45.5t-3 -62t3 -62t12 -46t27 -31t46 -11t46 11t27 31t12 46t3 62z" />
    <glyph glyph-name="ydieresis" unicode="&#xff;" horiz-adv-x="494" 
d="M490 521l-223 -605q-17 -45 -39 -67q-21 -22 -49.5 -31t-62.5 -9h-51v117h30q28 0 41.5 9.5t23.5 37.5l22 64l-178 484h137l108 -322l104 322h137zM410 606h-111v125h111v-125zM189 606h-111v125h111v-125z" />
    <glyph glyph-name="Amacron" unicode="&#x100;" horiz-adv-x="638" 
d="M633 0h-145l-42 126h-253l-43 -126h-145l259 712h109zM409 243l-87 259l-90 -259h177zM477 807h-316v87h316v-87z" />
    <glyph glyph-name="amacron" unicode="&#x101;" horiz-adv-x="534" 
d="M467 0h-127v45q-27 -27 -55.5 -38.5t-72.5 -11.5q-87 0 -133 46q-43 45 -43 117q0 66 45.5 108.5t132.5 42.5h123v26q0 43 -22.5 62.5t-74.5 19.5q-36 0 -57.5 -9.5t-42.5 -33.5l-83 81q37 41 79 56.5t109 15.5q222 0 222 -184v-343zM337 192v28h-103q-73 0 -73 -59
q0 -28 19 -44t56 -16q30 0 48 5t34 20q19 18 19 66zM425 630h-316v87h316v-87z" />
    <glyph glyph-name="Abreve" unicode="&#x102;" horiz-adv-x="638" 
d="M633 0h-145l-42 126h-253l-43 -126h-145l259 712h109zM409 243l-87 259l-90 -259h177zM483 919q-4 -77 -49 -114t-114 -37q-70 0 -115.5 37t-49.5 114h88q4 -30 25 -45t52 -15t51.5 15t24.5 45h87z" />
    <glyph glyph-name="abreve" unicode="&#x103;" horiz-adv-x="534" 
d="M467 0h-127v45q-27 -27 -55.5 -38.5t-72.5 -11.5q-87 0 -133 46q-43 45 -43 117q0 66 45.5 108.5t132.5 42.5h123v26q0 43 -22.5 62.5t-74.5 19.5q-36 0 -57.5 -9.5t-42.5 -33.5l-83 81q37 41 79 56.5t109 15.5q222 0 222 -184v-343zM337 192v28h-103q-73 0 -73 -59
q0 -28 19 -44t56 -16q30 0 48 5t34 20q19 18 19 66zM431 742q-4 -77 -49 -114t-114 -37q-70 0 -115.5 37t-49.5 114h88q4 -30 25 -45t52 -15t51.5 15t24.5 45h87z" />
    <glyph glyph-name="Aogonek" unicode="&#x104;" horiz-adv-x="638" 
d="M633 0h-145l-42 126h-253l-43 -126h-145l259 712h109zM409 243l-87 259l-90 -259h177zM664 -206h-121l-44 146h97z" />
    <glyph glyph-name="aogonek" unicode="&#x105;" horiz-adv-x="534" 
d="M467 0h-127v45q-27 -27 -55.5 -38.5t-72.5 -11.5q-87 0 -133 46q-43 45 -43 117q0 66 45.5 108.5t132.5 42.5h123v26q0 43 -22.5 62.5t-74.5 19.5q-36 0 -57.5 -9.5t-42.5 -33.5l-83 81q37 41 79 56.5t109 15.5q222 0 222 -184v-343zM337 192v28h-103q-73 0 -73 -59
q0 -28 19 -44t56 -16q30 0 48 5t34 20q19 18 19 66zM513 -206h-121l-44 146h97z" />
    <glyph glyph-name="Cacute" unicode="&#x106;" horiz-adv-x="562" 
d="M519 76q-42 -41 -88 -61.5t-110 -20.5q-114 0 -192 78q-47 47 -58.5 106.5t-11.5 177.5t11.5 177.5t58.5 106.5q78 78 192 78q64 0 110 -20.5t88 -61.5l-92 -92q-26 26 -48.5 38t-57.5 12q-56 0 -88 -37q-11 -12 -17.5 -26t-10 -35t-5.5 -54t-2 -86t2 -86t5.5 -54t10 -35
t17.5 -26q32 -37 88 -37q35 0 57.5 12t48.5 38zM437 951l-114 -170h-87l64 170h137z" />
    <glyph glyph-name="cacute" unicode="&#x107;" horiz-adv-x="480" 
d="M452 65q-68 -71 -172 -71q-43 0 -83 13t-74.5 43.5t-55 83t-20.5 127.5t20.5 127.5t54.5 82.5t74.5 43t83.5 13q54 0 96 -17t76 -53l-88 -88q-21 22 -40 31.5t-44 9.5q-46 0 -74 -34q-29 -36 -29 -115q0 -80 29 -116q28 -34 74 -34q25 0 44 9.5t40 31.5zM393 774
l-114 -170h-87l64 170h137z" />
    <glyph glyph-name="Ccaron" unicode="&#x10c;" horiz-adv-x="562" 
d="M519 76q-42 -41 -88 -61.5t-110 -20.5q-114 0 -192 78q-47 47 -58.5 106.5t-11.5 177.5t11.5 177.5t58.5 106.5q78 78 192 78q64 0 110 -20.5t88 -61.5l-92 -92q-26 26 -48.5 38t-57.5 12q-56 0 -88 -37q-11 -12 -17.5 -26t-10 -35t-5.5 -54t-2 -86t2 -86t5.5 -54t10 -35
t17.5 -26q32 -37 88 -37q35 0 57.5 12t48.5 38zM478 950l-132 -169h-104l-132 169h101l83 -90l83 90h101z" />
    <glyph glyph-name="ccaron" unicode="&#x10d;" horiz-adv-x="480" 
d="M452 65q-68 -71 -172 -71q-43 0 -83 13t-74.5 43.5t-55 83t-20.5 127.5t20.5 127.5t54.5 82.5t74.5 43t83.5 13q54 0 96 -17t76 -53l-88 -88q-21 22 -40 31.5t-44 9.5q-46 0 -74 -34q-29 -36 -29 -115q0 -80 29 -116q28 -34 74 -34q25 0 44 9.5t40 31.5zM440 773
l-132 -169h-104l-132 169h101l83 -90l83 90h101z" />
    <glyph glyph-name="Dcaron" unicode="&#x10e;" horiz-adv-x="659" 
d="M600 359q0 -120 -11 -173q-7 -36 -22 -65t-39 -53q-34 -34 -82.5 -51t-105.5 -17h-257v712h257q57 0 105.5 -17t82.5 -51q25 -24 39 -52t21.5 -61.5t9.5 -73.5t2 -98zM461 359q0 85 -5.5 123.5t-24.5 61.5q-36 44 -104 44h-105v-464h105q68 0 104 44q19 23 24.5 63.5
t5.5 127.5zM513 950l-132 -169h-104l-132 169h101l83 -90l83 90h101z" />
    <glyph glyph-name="dcaron" unicode="&#x10f;" horiz-adv-x="561" 
d="M488 0h-127v49q-27 -30 -57 -42.5t-72 -12.5q-38 0 -72 12.5t-56 34.5q-34 35 -46 100q-4 26 -5.5 54t-1.5 66q0 80 9.5 132.5t43.5 86.5q22 22 55.5 34.5t71.5 12.5q41 0 71.5 -12t55.5 -40v237h130v-712zM358 261q0 36 -3 62t-12 44q-20 43 -74 43q-28 0 -46 -11
t-27 -30.5t-12 -45.5t-3 -62t3 -62t12 -46t27 -31t46 -11q54 0 74 43q9 19 12 45.5t3 61.5zM699 667l-121 -92v204h121v-112z" />
    <glyph glyph-name="Dcroat" unicode="&#x110;" horiz-adv-x="682" 
d="M623 356q0 -64 -1.5 -100t-7.5 -66.5t-18.5 -56t-35.5 -50.5q-36 -40 -87 -61.5t-112 -21.5h-255v307h-69v106h69v299h257q124 0 197 -84q22 -25 35 -50.5t19 -56t7.5 -67t1.5 -98.5zM484 354q0 48 -1 78.5t-3.5 49t-7.5 31t-13 24.5q-37 52 -109 52h-105v-176h116v-106
h-116v-184h105q76 0 111 53q8 11 12.5 23t6.5 29.5t3 46.5t1 79z" />
    <glyph glyph-name="dcroat" unicode="&#x111;" horiz-adv-x="561" 
d="M548 566h-60v-566h-127v49q-27 -30 -57 -42.5t-72 -12.5q-38 0 -72 12.5t-56 34.5q-34 35 -46 100q-4 26 -5.5 54t-1.5 66q0 80 9.5 132.5t43.5 86.5q22 22 55.5 34.5t71.5 12.5q41 0 71.5 -12t55.5 -40v91h-66v87h66v59h130v-59h60v-87zM358 261q0 36 -3 62t-12 44
q-20 43 -74 43q-28 0 -46 -11t-27 -30.5t-12 -45.5t-3 -62t3 -62t12 -46t27 -31t46 -11q54 0 74 43q9 19 12 45.5t3 61.5z" />
    <glyph glyph-name="Emacron" unicode="&#x112;" horiz-adv-x="605" 
d="M552 0h-469v712h469v-124h-330v-167h281v-124h-281v-173h330v-124zM460 807h-316v87h316v-87z" />
    <glyph glyph-name="emacron" unicode="&#x113;" horiz-adv-x="548" 
d="M501 220h-326q0 -52 30.5 -84t83.5 -32q41 0 66.5 11.5t51.5 37.5l79 -77q-43 -43 -87 -62.5t-111 -19.5q-50 0 -92.5 13t-76 43t-53 82.5t-19.5 128.5q0 126 62 196t165 70q106 0 166.5 -69.5t60.5 -179.5v-58zM373 309q-1 17 -3.5 29.5t-8.5 26.5q-11 25 -33 39.5
t-54 14.5q-31 0 -53.5 -14.5t-33.5 -39.5q-6 -14 -8.5 -26.5t-3.5 -29.5h198zM432 630h-316v87h316v-87z" />
    <glyph glyph-name="Edotaccent" unicode="&#x116;" horiz-adv-x="605" 
d="M552 0h-469v712h469v-124h-330v-167h281v-124h-281v-173h330v-124zM369 785h-134v106h134v-106z" />
    <glyph glyph-name="edotaccent" unicode="&#x117;" horiz-adv-x="548" 
d="M501 220h-326q0 -52 30.5 -84t83.5 -32q41 0 66.5 11.5t51.5 37.5l79 -77q-43 -43 -87 -62.5t-111 -19.5q-50 0 -92.5 13t-76 43t-53 82.5t-19.5 128.5q0 126 62 196t165 70q106 0 166.5 -69.5t60.5 -179.5v-58zM373 309q-1 17 -3.5 29.5t-8.5 26.5q-11 25 -33 39.5
t-54 14.5q-31 0 -53.5 -14.5t-33.5 -39.5q-6 -14 -8.5 -26.5t-3.5 -29.5h198zM341 608h-134v106h134v-106z" />
    <glyph glyph-name="Eogonek" unicode="&#x118;" horiz-adv-x="605" 
d="M552 0h-469v712h469v-124h-330v-167h281v-124h-281v-173h330v-124zM584 -206h-121l-44 146h97z" />
    <glyph glyph-name="eogonek" unicode="&#x119;" horiz-adv-x="548" 
d="M501 220h-326q0 -52 30.5 -84t83.5 -32q41 0 66.5 11.5t51.5 37.5l79 -77q-43 -43 -87 -62.5t-111 -19.5q-50 0 -92.5 13t-76 43t-53 82.5t-19.5 128.5q0 126 62 196t165 70q106 0 166.5 -69.5t60.5 -179.5v-58zM373 309q-1 17 -3.5 29.5t-8.5 26.5q-11 25 -33 39.5
t-54 14.5q-31 0 -53.5 -14.5t-33.5 -39.5q-6 -14 -8.5 -26.5t-3.5 -29.5h198zM408 -206h-121l-44 146h97z" />
    <glyph glyph-name="Ecaron" unicode="&#x11a;" horiz-adv-x="605" 
d="M552 0h-469v712h469v-124h-330v-167h281v-124h-281v-173h330v-124zM486 950l-132 -169h-104l-132 169h101l83 -90l83 90h101z" />
    <glyph glyph-name="ecaron" unicode="&#x11b;" horiz-adv-x="548" 
d="M501 220h-326q0 -52 30.5 -84t83.5 -32q41 0 66.5 11.5t51.5 37.5l79 -77q-43 -43 -87 -62.5t-111 -19.5q-50 0 -92.5 13t-76 43t-53 82.5t-19.5 128.5q0 126 62 196t165 70q106 0 166.5 -69.5t60.5 -179.5v-58zM373 309q-1 17 -3.5 29.5t-8.5 26.5q-11 25 -33 39.5
t-54 14.5q-31 0 -53.5 -14.5t-33.5 -39.5q-6 -14 -8.5 -26.5t-3.5 -29.5h198zM458 773l-132 -169h-104l-132 169h101l83 -90l83 90h101z" />
    <glyph glyph-name="Gbreve" unicode="&#x11e;" horiz-adv-x="637" 
d="M586 294q0 -79 -14.5 -129.5t-51.5 -88.5q-79 -82 -199 -82q-114 0 -192 78q-47 47 -58.5 106.5t-11.5 177.5t11.5 177.5t58.5 106.5q78 78 192 78q72 0 120.5 -20.5t97.5 -70.5l-94 -94q-33 33 -59 47t-65 14q-56 0 -89 -38q-11 -12 -17 -25.5t-10 -35t-5.5 -53.5
t-1.5 -86t1.5 -86.5t5.5 -54t10.5 -35t16.5 -25.5q32 -37 89 -37q58 0 95 40q16 18 23.5 43.5t7.5 53.5v25h-126v116h265v-102zM482 919q-4 -77 -49 -114t-114 -37q-70 0 -115.5 37t-49.5 114h88q4 -30 25 -45t52 -15t51.5 15t24.5 45h87z" />
    <glyph glyph-name="gbreve" unicode="&#x11f;" horiz-adv-x="555" 
d="M482 19q0 -95 -62.5 -155.5t-166.5 -60.5q-62 0 -106 15t-83 53l81 82q22 -21 45.5 -30.5t56.5 -9.5q54 0 79.5 31.5t25.5 76.5v53q-25 -28 -55 -40t-69 -12q-38 0 -70 12t-54 34q-34 34 -43.5 80.5t-9.5 126.5t9.5 126t43.5 80q22 22 54.5 34t70.5 12q41 0 70.5 -12.5
t56.5 -42.5v49h126v-502zM352 275q0 30 -3 53t-11.5 41.5t-26 29.5t-45.5 11t-45 -11t-25.5 -29.5t-11.5 -41t-3 -53.5t3 -53.5t11.5 -41.5t26 -30t44.5 -11q28 0 45 11t26 30t12 42t3 53zM441 742q-4 -77 -49 -114t-114 -37q-70 0 -115.5 37t-49.5 114h88q4 -30 25 -45
t52 -15t51.5 15t24.5 45h87z" />
    <glyph glyph-name="Gcedilla" unicode="&#x122;" horiz-adv-x="637" 
d="M586 294q0 -79 -14.5 -129.5t-51.5 -88.5q-79 -82 -199 -82q-114 0 -192 78q-47 47 -58.5 106.5t-11.5 177.5t11.5 177.5t58.5 106.5q78 78 192 78q72 0 120.5 -20.5t97.5 -70.5l-94 -94q-33 33 -59 47t-65 14q-56 0 -89 -38q-11 -12 -17 -25.5t-10 -35t-5.5 -53.5
t-1.5 -86t1.5 -86.5t5.5 -54t10.5 -35t16.5 -25.5q32 -37 89 -37q58 0 95 40q16 18 23.5 43.5t7.5 53.5v25h-126v116h265v-102zM393 -60l-44 -146h-121l69 146h96z" />
    <glyph glyph-name="gcedilla" unicode="&#x123;" horiz-adv-x="555" 
d="M482 19q0 -95 -62.5 -155.5t-166.5 -60.5q-62 0 -106 15t-83 53l81 82q22 -21 45.5 -30.5t56.5 -9.5q54 0 79.5 31.5t25.5 76.5v53q-25 -28 -55 -40t-69 -12q-38 0 -70 12t-54 34q-34 34 -43.5 80.5t-9.5 126.5t9.5 126t43.5 80q22 22 54.5 34t70.5 12q41 0 70.5 -12.5
t56.5 -42.5v49h126v-502zM352 275q0 30 -3 53t-11.5 41.5t-26 29.5t-45.5 11t-45 -11t-25.5 -29.5t-11.5 -41t-3 -53.5t3 -53.5t11.5 -41.5t26 -30t44.5 -11q28 0 45 11t26 30t12 42t3 53zM423 774l-114 -170h-87l64 170h137z" />
    <glyph glyph-name="Imacron" unicode="&#x12a;" horiz-adv-x="305" 
d="M222 0h-139v712h139v-712zM311 807h-316v87h316v-87z" />
    <glyph glyph-name="imacron" unicode="&#x12b;" horiz-adv-x="275" 
d="M203 0h-130v521h130v-521zM296 630h-316v87h316v-87z" />
    <glyph glyph-name="Iogonek" unicode="&#x12e;" horiz-adv-x="305" 
d="M222 0h-139v712h139v-712zM257 -206h-121l-44 146h97z" />
    <glyph glyph-name="iogonek" unicode="&#x12f;" horiz-adv-x="275" 
d="M203 0h-130v521h130v-521zM204 610h-133v106h133v-106zM252 -206h-121l-44 146h97z" />
    <glyph glyph-name="Idotaccent" unicode="&#x130;" horiz-adv-x="305" 
d="M222 0h-139v712h139v-712zM220 785h-134v106h134v-106z" />
    <glyph glyph-name="dotlessi" unicode="&#x131;" horiz-adv-x="275" 
d="M203 0h-130v521h130v-521z" />
    <glyph glyph-name="Kcedilla" unicode="&#x136;" horiz-adv-x="665" 
d="M659 0h-162l-183 324l-92 -110v-214h-139v712h139v-310l251 310h169l-236 -283zM407 -60l-44 -146h-121l69 146h96z" />
    <glyph glyph-name="kcedilla" unicode="&#x137;" horiz-adv-x="559" 
d="M547 0h-161l-128 217l-55 -62v-155h-130v712h130v-404l173 213h157l-186 -210zM354 -60l-44 -146h-121l69 146h96z" />
    <glyph glyph-name="Lacute" unicode="&#x139;" horiz-adv-x="575" 
d="M545 0h-462v712h139v-588h323v-124zM433 951l-114 -170h-87l64 170h137z" />
    <glyph glyph-name="lacute" unicode="&#x13a;" horiz-adv-x="325" 
d="M294 0h-74q-75 0 -113.5 44t-38.5 105v563h130v-555q0 -47 46 -47h50v-110zM309 951l-114 -170h-87l64 170h137z" />
    <glyph glyph-name="Lcedilla" unicode="&#x13b;" horiz-adv-x="575" 
d="M545 0h-462v712h139v-588h323v-124zM362 -60l-44 -146h-121l69 146h96z" />
    <glyph glyph-name="lcedilla" unicode="&#x13c;" horiz-adv-x="325" 
d="M294 0h-74q-75 0 -113.5 44t-38.5 105v563h130v-555q0 -47 46 -47h50v-110zM238 -60l-44 -146h-121l69 146h96z" />
    <glyph glyph-name="Lcaron" unicode="&#x13d;" horiz-adv-x="575" 
d="M545 0h-462v712h139v-588h323v-124zM474 712v-112l-121 -92v204h121z" />
    <glyph glyph-name="lcaron" unicode="&#x13e;" horiz-adv-x="325" 
d="M294 0h-74q-75 0 -113.5 44t-38.5 105v563h130v-555q0 -47 46 -47h50v-110zM409 779v-112l-121 -92v204h121z" />
    <glyph glyph-name="Lslash" unicode="&#x141;" horiz-adv-x="593" 
d="M563 0h-462v244l-64 -41v116l64 41v352h139v-265l128 81v-115l-128 -81v-208h323v-124z" />
    <glyph glyph-name="lslash" unicode="&#x142;" horiz-adv-x="336" 
d="M309 0h-74q-75 0 -113 43.5t-38 105.5v153l-54 -33v109l54 34v300h130v-222l60 37v-109l-60 -38v-223q0 -47 45 -47h50v-110z" />
    <glyph glyph-name="Nacute" unicode="&#x143;" horiz-adv-x="711" 
d="M628 0h-124l-282 437v-437h-139v712h124l282 -436v436h139v-712zM501 951l-114 -170h-87l64 170h137z" />
    <glyph glyph-name="nacute" unicode="&#x144;" horiz-adv-x="573" 
d="M506 0h-130v315q0 49 -25.5 72t-60.5 23q-36 0 -61.5 -23t-25.5 -72v-315h-130v521h127v-48q25 26 59 40t71 14q77 0 123 -46q30 -30 41.5 -66t11.5 -82v-333zM432 774l-114 -170h-87l64 170h137z" />
    <glyph glyph-name="Ncedilla" unicode="&#x145;" horiz-adv-x="711" 
d="M628 0h-124l-282 437v-437h-139v712h124l282 -436v436h139v-712zM430 -60l-44 -146h-121l69 146h96z" />
    <glyph glyph-name="ncedilla" unicode="&#x146;" horiz-adv-x="573" 
d="M506 0h-130v315q0 49 -25.5 72t-60.5 23q-36 0 -61.5 -23t-25.5 -72v-315h-130v521h127v-48q25 26 59 40t71 14q77 0 123 -46q30 -30 41.5 -66t11.5 -82v-333zM361 -60l-44 -146h-121l69 146h96z" />
    <glyph glyph-name="Ncaron" unicode="&#x147;" horiz-adv-x="711" 
d="M628 0h-124l-282 437v-437h-139v712h124l282 -436v436h139v-712zM539 950l-132 -169h-104l-132 169h101l83 -90l83 90h101z" />
    <glyph glyph-name="ncaron" unicode="&#x148;" horiz-adv-x="573" 
d="M506 0h-130v315q0 49 -25.5 72t-60.5 23q-36 0 -61.5 -23t-25.5 -72v-315h-130v521h127v-48q25 26 59 40t71 14q77 0 123 -46q30 -30 41.5 -66t11.5 -82v-333zM470 773l-132 -169h-104l-132 169h101l83 -90l83 90h101z" />
    <glyph glyph-name="Omacron" unicode="&#x14c;" horiz-adv-x="644" 
d="M585 356q0 -116 -11.5 -176t-59.5 -108q-39 -39 -86 -58.5t-106 -19.5t-106.5 19.5t-86.5 58.5q-47 47 -58.5 106.5t-11.5 177.5t11.5 177.5t58.5 106.5q39 39 86.5 58.5t106.5 19.5t106 -19.5t86 -58.5q48 -48 59.5 -108t11.5 -176zM446 356q0 53 -1.5 86t-5.5 54
t-10.5 34.5t-17.5 25.5q-33 38 -89 38q-28 0 -51.5 -10t-38.5 -28q-11 -12 -17 -25.5t-10 -35t-5.5 -53.5t-1.5 -86t1.5 -86.5t5.5 -53.5t10.5 -34.5t16.5 -25.5q15 -18 38.5 -28t51.5 -10q56 0 89 38q11 12 17.5 26t10.5 34.5t5.5 54t1.5 85.5zM480 807h-316v87h316v-87z
" />
    <glyph glyph-name="omacron" unicode="&#x14d;" 
d="M492 261q0 -75 -12.5 -121.5t-46.5 -81.5q-27 -28 -67.5 -46t-94.5 -18t-94 18t-67 46q-34 35 -46.5 81.5t-12.5 121.5q0 74 12.5 120.5t46.5 81.5q27 29 67 46.5t94 17.5t94.5 -18t67.5 -46q34 -35 46.5 -81.5t12.5 -120.5zM362 261q0 48 -5.5 78t-24.5 48
q-23 23 -61 23q-37 0 -60 -23q-18 -18 -24 -48t-6 -78t6 -78t24 -49q23 -23 60 -23q38 0 61 23q19 19 24.5 49t5.5 78zM429 630h-316v87h316v-87z" />
    <glyph glyph-name="Ohungarumlaut" unicode="&#x150;" horiz-adv-x="644" 
d="M585 356q0 -116 -11.5 -176t-59.5 -108q-39 -39 -86 -58.5t-106 -19.5t-106.5 19.5t-86.5 58.5q-47 47 -58.5 106.5t-11.5 177.5t11.5 177.5t58.5 106.5q39 39 86.5 58.5t106.5 19.5t106 -19.5t86 -58.5q48 -48 59.5 -108t11.5 -176zM446 356q0 53 -1.5 86t-5.5 54
t-10.5 34.5t-17.5 25.5q-33 38 -89 38q-28 0 -51.5 -10t-38.5 -28q-11 -12 -17 -25.5t-10 -35t-5.5 -53.5t-1.5 -86t1.5 -86.5t5.5 -53.5t10.5 -34.5t16.5 -25.5q15 -18 38.5 -28t51.5 -10q56 0 89 38q11 12 17.5 26t10.5 34.5t5.5 54t1.5 85.5zM360 951l-114 -170h-87
l63 170h138zM567 951l-115 -170h-86l63 170h138z" />
    <glyph glyph-name="ohungarumlaut" unicode="&#x151;" 
d="M492 261q0 -75 -12.5 -121.5t-46.5 -81.5q-27 -28 -67.5 -46t-94.5 -18t-94 18t-67 46q-34 35 -46.5 81.5t-12.5 121.5q0 74 12.5 120.5t46.5 81.5q27 29 67 46.5t94 17.5t94.5 -18t67.5 -46q34 -35 46.5 -81.5t12.5 -120.5zM362 261q0 48 -5.5 78t-24.5 48
q-23 23 -61 23q-37 0 -60 -23q-18 -18 -24 -48t-6 -78t6 -78t24 -49q23 -23 60 -23q38 0 61 23q19 19 24.5 49t5.5 78zM309 774l-114 -170h-87l63 170h138zM516 774l-115 -170h-86l63 170h138z" />
    <glyph glyph-name="OE" unicode="&#x152;" horiz-adv-x="966" 
d="M912 0h-466v44q-24 -25 -58.5 -37.5t-69.5 -12.5q-60 0 -105.5 18.5t-83.5 56.5q-47 47 -58.5 108.5t-11.5 178.5t11.5 178.5t58.5 108.5q38 38 83.5 56.5t105.5 18.5q36 0 70 -12t58 -38v44h465v-123h-327l1 -84v-85h278v-122h-278v-87l-1 -88h328v-123zM446 356
q0 53 -1.5 86t-5.5 54t-10.5 34.5t-17.5 25.5q-33 38 -89 38q-28 0 -51.5 -10t-38.5 -28q-11 -12 -17 -25.5t-10 -35t-5.5 -53.5t-1.5 -86t1.5 -86.5t5.5 -53.5t10.5 -34.5t16.5 -25.5q15 -18 38.5 -28t51.5 -10q56 0 89 38q11 12 17.5 26t10.5 34.5t5.5 54t1.5 85.5z" />
    <glyph glyph-name="oe" unicode="&#x153;" horiz-adv-x="863" 
d="M816 220h-326q0 -52 30.5 -84t83.5 -32q41 0 65.5 11t51.5 38l80 -77q-43 -43 -87 -62.5t-111 -19.5q-53 0 -98 16t-76 50q-25 -31 -65.5 -48.5t-92.5 -17.5q-54 0 -94 18t-67 46q-34 35 -46.5 81.5t-12.5 121.5q0 74 12.5 120.5t46.5 81.5q27 29 67 46.5t94 17.5
q53 0 94.5 -19t66.5 -50q57 69 157 69q106 0 166.5 -69.5t60.5 -179.5v-58zM362 261q0 48 -5.5 78t-24.5 48q-23 23 -61 23q-37 0 -60 -23q-18 -18 -24 -48t-6 -78t6 -78t24 -49q23 -23 60 -23q38 0 61 23q19 19 24.5 49t5.5 78zM687 309q-1 18 -3 30t-8 26q-11 25 -33 39.5
t-54 14.5q-31 0 -54 -14.5t-34 -39.5q-6 -14 -8 -26t-3 -30h197z" />
    <glyph glyph-name="Racute" unicode="&#x154;" horiz-adv-x="654" 
d="M622 0h-161l-139 284h-100v-284h-139v712h279q53 0 96.5 -17t73.5 -47t45.5 -69.5t15.5 -84.5q0 -71 -37 -119t-93 -68zM454 494q0 42 -28 68t-73 26h-131v-188h131q45 0 73 26t28 68zM473 951l-114 -170h-87l64 170h137z" />
    <glyph glyph-name="racute" unicode="&#x155;" horiz-adv-x="455" 
d="M454 478l-98 -99q-16 17 -31.5 24t-37.5 7q-33 0 -58.5 -25t-25.5 -71v-314h-130v521h127v-50q20 24 55.5 40t75.5 16q39 0 68 -11t55 -38zM374 774l-114 -170h-87l64 170h137z" />
    <glyph glyph-name="Rcedilla" unicode="&#x156;" horiz-adv-x="654" 
d="M622 0h-161l-139 284h-100v-284h-139v712h279q53 0 96.5 -17t73.5 -47t45.5 -69.5t15.5 -84.5q0 -71 -37 -119t-93 -68zM454 494q0 42 -28 68t-73 26h-131v-188h131q45 0 73 26t28 68zM402 -60l-44 -146h-121l69 146h96z" />
    <glyph glyph-name="rcedilla" unicode="&#x157;" horiz-adv-x="455" 
d="M454 478l-98 -99q-16 17 -31.5 24t-37.5 7q-33 0 -58.5 -25t-25.5 -71v-314h-130v521h127v-50q20 24 55.5 40t75.5 16q39 0 68 -11t55 -38zM222 -60l-44 -146h-121l69 146h96z" />
    <glyph glyph-name="Rcaron" unicode="&#x158;" horiz-adv-x="654" 
d="M622 0h-161l-139 284h-100v-284h-139v712h279q53 0 96.5 -17t73.5 -47t45.5 -69.5t15.5 -84.5q0 -71 -37 -119t-93 -68zM454 494q0 42 -28 68t-73 26h-131v-188h131q45 0 73 26t28 68zM511 950l-132 -169h-104l-132 169h101l83 -90l83 90h101z" />
    <glyph glyph-name="rcaron" unicode="&#x159;" horiz-adv-x="455" 
d="M454 478l-98 -99q-16 17 -31.5 24t-37.5 7q-33 0 -58.5 -25t-25.5 -71v-314h-130v521h127v-50q20 24 55.5 40t75.5 16q39 0 68 -11t55 -38zM412 773l-132 -169h-104l-132 169h101l83 -90l83 90h101z" />
    <glyph glyph-name="Sacute" unicode="&#x15a;" horiz-adv-x="591" 
d="M543 210q0 -101 -74 -158.5t-190 -57.5q-84 0 -146.5 21.5t-113.5 72.5l90 90q32 -32 75.5 -46t96.5 -14q126 0 126 88q0 40 -22 60q-11 10 -25 15.5t-38 9.5l-86 12q-91 13 -138 59q-51 51 -51 140q0 97 67 156.5t181 59.5q75 0 130 -19.5t100 -63.5l-88 -87
q-30 29 -66.5 39t-79.5 10q-53 0 -81.5 -25.5t-28.5 -64.5q0 -31 21 -51q24 -22 66 -28l84 -12q48 -7 80.5 -20t55.5 -35q55 -52 55 -151zM441 951l-114 -170h-87l64 170h137z" />
    <glyph glyph-name="sacute" unicode="&#x15b;" horiz-adv-x="501" 
d="M465 164q0 -83 -62 -126.5t-159 -43.5q-72 0 -124.5 15t-97.5 60l85 85q29 -29 64.5 -39t74.5 -10q38 0 65 13.5t27 40.5q0 21 -13 33t-42 15l-82 8q-74 7 -113 42t-39 104q0 78 58.5 122t142.5 44q65 0 114.5 -14t84.5 -47l-80 -81q-21 19 -52 27t-69 8
q-37 0 -55.5 -14.5t-18.5 -35.5q0 -17 11.5 -29.5t42.5 -15.5l82 -8q77 -7 116 -46.5t39 -106.5zM396 774l-114 -170h-87l64 170h137z" />
    <glyph glyph-name="Scommaaccent" unicode="&#x15e;" horiz-adv-x="591" 
d="M543 210q0 -101 -74 -158.5t-190 -57.5q-84 0 -146.5 21.5t-113.5 72.5l90 90q32 -32 75.5 -46t96.5 -14q126 0 126 88q0 40 -22 60q-11 10 -25 15.5t-38 9.5l-86 12q-91 13 -138 59q-51 51 -51 140q0 97 67 156.5t181 59.5q75 0 130 -19.5t100 -63.5l-88 -87
q-30 29 -66.5 39t-79.5 10q-53 0 -81.5 -25.5t-28.5 -64.5q0 -31 21 -51q24 -22 66 -28l84 -12q48 -7 80.5 -20t55.5 -35q55 -52 55 -151zM370 -60l-44 -146h-121l69 146h96z" />
    <glyph glyph-name="scommaaccent" unicode="&#x15f;" horiz-adv-x="501" 
d="M465 164q0 -83 -62 -126.5t-159 -43.5q-72 0 -124.5 15t-97.5 60l85 85q29 -29 64.5 -39t74.5 -10q38 0 65 13.5t27 40.5q0 21 -13 33t-42 15l-82 8q-74 7 -113 42t-39 104q0 78 58.5 122t142.5 44q65 0 114.5 -14t84.5 -47l-80 -81q-21 19 -52 27t-69 8
q-37 0 -55.5 -14.5t-18.5 -35.5q0 -17 11.5 -29.5t42.5 -15.5l82 -8q77 -7 116 -46.5t39 -106.5zM325 -60l-44 -146h-121l69 146h96z" />
    <glyph glyph-name="Scaron" unicode="&#x160;" horiz-adv-x="591" 
d="M543 210q0 -101 -74 -158.5t-190 -57.5q-84 0 -146.5 21.5t-113.5 72.5l90 90q32 -32 75.5 -46t96.5 -14q126 0 126 88q0 40 -22 60q-11 10 -25 15.5t-38 9.5l-86 12q-91 13 -138 59q-51 51 -51 140q0 97 67 156.5t181 59.5q75 0 130 -19.5t100 -63.5l-88 -87
q-30 29 -66.5 39t-79.5 10q-53 0 -81.5 -25.5t-28.5 -64.5q0 -31 21 -51q24 -22 66 -28l84 -12q48 -7 80.5 -20t55.5 -35q55 -52 55 -151zM478 950l-132 -169h-104l-132 169h101l83 -90l83 90h101z" />
    <glyph glyph-name="scaron" unicode="&#x161;" horiz-adv-x="501" 
d="M250 527q65 0 114.5 -14t84.5 -47l-80 -81q-21 19 -52 27t-69 8q-37 0 -55.5 -14.5t-18.5 -35.5q0 -17 11.5 -29.5t42.5 -15.5l42 -4l40 -4q77 -7 116 -46.5t39 -106.5q0 -83 -62 -126.5t-159 -43.5q-72 0 -124.5 15t-97.5 60l85 85q29 -29 64.5 -39t74.5 -10
q38 0 65 13.5t27 40.5q0 21 -13 33t-42 15l-40 4l-42 4q-74 7 -113 42t-39 104q0 78 58.5 122t142.5 44zM434 773l-132 -169h-104l-132 169h101l83 -90l83 90h101z" />
    <glyph glyph-name="Tcommaaccent" unicode="&#x162;" horiz-adv-x="571" 
d="M541 588h-186v-588h-139v588h-186v124h511v-124zM360 -60l-44 -146h-121l69 146h96z" />
    <glyph glyph-name="tcommaaccent" unicode="&#x163;" horiz-adv-x="352" 
d="M307 0h-71q-74 0 -112.5 44t-38.5 105v258h-55v99h55v154h130v-154h92v-99h-92v-250q0 -47 45 -47h47v-110zM251 -60l-44 -146h-121l69 146h96z" />
    <glyph glyph-name="Tcaron" unicode="&#x164;" horiz-adv-x="571" 
d="M541 588h-186v-588h-139v588h-186v124h511v-124zM469 950l-132 -169h-104l-132 169h101l83 -90l83 90h101z" />
    <glyph glyph-name="tcaron" unicode="&#x165;" horiz-adv-x="352" 
d="M307 0h-71q-74 0 -112.5 44t-38.5 105v258h-55v99h55v154h130v-154h92v-99h-92v-250q0 -47 45 -47h47v-110zM416 667l-121 -92v204h121v-112z" />
    <glyph glyph-name="Umacron" unicode="&#x16a;" horiz-adv-x="668" 
d="M596 244q0 -56 -20 -102t-56 -79.5t-84 -51t-102 -17.5t-102 17.5t-84 51t-56 79.5t-20 102v468h139v-463q0 -61 33.5 -96t89.5 -35q57 0 90.5 35t33.5 96v463h138v-468zM492 807h-316v87h316v-87z" />
    <glyph glyph-name="umacron" unicode="&#x16b;" horiz-adv-x="573" 
d="M500 0h-127v48q-25 -26 -59 -40t-71 -14q-77 0 -123 46q-30 30 -41.5 66t-11.5 82v333h130v-315q0 -49 25.5 -72t60.5 -23q36 0 61.5 23t25.5 72v315h130v-521zM444 630h-316v87h316v-87z" />
    <glyph glyph-name="Uring" unicode="&#x16e;" horiz-adv-x="668" 
d="M596 244q0 -56 -20 -102t-56 -79.5t-84 -51t-102 -17.5t-102 17.5t-84 51t-56 79.5t-20 102v468h139v-463q0 -61 33.5 -96t89.5 -35q57 0 90.5 35t33.5 96v463h138v-468zM465 892q0 -54 -38.5 -92.5t-92.5 -38.5t-92.5 38.5t-38.5 92.5t38.5 92.5t92.5 38.5t92.5 -38
t38.5 -93zM392 892q0 24 -17 41t-41 17t-41 -17t-17 -41t17 -41.5t41 -17.5t41 17.5t17 41.5z" />
    <glyph glyph-name="uring" unicode="&#x16f;" horiz-adv-x="573" 
d="M500 0h-127v48q-25 -26 -59 -40t-71 -14q-77 0 -123 46q-30 30 -41.5 66t-11.5 82v333h130v-315q0 -49 25.5 -72t60.5 -23q36 0 61.5 23t25.5 72v315h130v-521zM417 715q0 -54 -38.5 -92.5t-92.5 -38.5t-92.5 38.5t-38.5 92.5t38.5 92.5t92.5 38.5t92.5 -38t38.5 -93z
M344 715q0 24 -17 41t-41 17t-41 -17t-17 -41t17 -41.5t41 -17.5t41 17.5t17 41.5z" />
    <glyph glyph-name="Uhungarumlaut" unicode="&#x170;" horiz-adv-x="668" 
d="M596 244q0 -56 -20 -102t-56 -79.5t-84 -51t-102 -17.5t-102 17.5t-84 51t-56 79.5t-20 102v468h139v-463q0 -61 33.5 -96t89.5 -35q57 0 90.5 35t33.5 96v463h138v-468zM372 951l-114 -170h-87l63 170h138zM579 951l-115 -170h-86l63 170h138z" />
    <glyph glyph-name="uhungarumlaut" unicode="&#x171;" horiz-adv-x="573" 
d="M500 0h-127v48q-25 -26 -59 -40t-71 -14q-77 0 -123 46q-30 30 -41.5 66t-11.5 82v333h130v-315q0 -49 25.5 -72t60.5 -23q36 0 61.5 23t25.5 72v315h130v-521zM324 774l-114 -170h-87l63 170h138zM531 774l-115 -170h-86l63 170h138z" />
    <glyph glyph-name="Uogonek" unicode="&#x172;" horiz-adv-x="668" 
d="M596 244q0 -56 -20 -102t-56 -79.5t-84 -51t-102 -17.5t-102 17.5t-84 51t-56 79.5t-20 102v468h139v-463q0 -61 33.5 -96t89.5 -35q57 0 90.5 35t33.5 96v463h138v-468zM458 -206h-121l-44 146h97z" />
    <glyph glyph-name="uogonek" unicode="&#x173;" horiz-adv-x="573" 
d="M500 0h-127v48q-25 -26 -59 -40t-71 -14q-77 0 -123 46q-30 30 -41.5 66t-11.5 82v333h130v-315q0 -49 25.5 -72t60.5 -23q36 0 61.5 23t25.5 72v315h130v-521zM552 -206h-121l-44 146h97z" />
    <glyph glyph-name="Ydieresis" unicode="&#x178;" horiz-adv-x="572" 
d="M569 712l-214 -420v-292h-138v292l-214 420h151l133 -287l131 287h151zM451 783h-111v125h111v-125zM230 783h-111v125h111v-125z" />
    <glyph glyph-name="Zacute" unicode="&#x179;" horiz-adv-x="548" 
d="M508 0h-468v112l304 476h-291v124h455v-110l-305 -478h305v-124zM420 951l-114 -170h-87l64 170h137z" />
    <glyph glyph-name="zacute" unicode="&#x17a;" horiz-adv-x="478" 
d="M434 0h-397v99l231 305h-218v117h384v-99l-234 -305h234v-117zM385 774l-114 -170h-87l64 170h137z" />
    <glyph glyph-name="Zdotaccent" unicode="&#x17b;" horiz-adv-x="548" 
d="M508 0h-468v112l304 476h-291v124h455v-110l-305 -478h305v-124zM341 785h-134v106h134v-106z" />
    <glyph glyph-name="zdotaccent" unicode="&#x17c;" horiz-adv-x="478" 
d="M434 0h-397v99l231 305h-218v117h384v-99l-234 -305h234v-117zM306 608h-134v106h134v-106z" />
    <glyph glyph-name="Zcaron" unicode="&#x17d;" horiz-adv-x="548" 
d="M508 0h-468v112l304 476h-291v124h455v-110l-305 -478h305v-124zM461 950l-132 -169h-104l-132 169h101l83 -90l83 90h101z" />
    <glyph glyph-name="zcaron" unicode="&#x17e;" horiz-adv-x="478" 
d="M434 0h-397v99l231 305h-218v117h384v-99l-234 -305h234v-117zM426 773l-132 -169h-104l-132 169h101l83 -90l83 90h101z" />
    <glyph glyph-name="florin" unicode="&#x192;" horiz-adv-x="427" 
d="M397 610h-69q-46 0 -54 -47l-29 -166h96v-100h-113l-87 -488h-130l87 488h-67v100h84l31 174q11 61 56.5 105t120.5 44l74 -1v-109z" />
    <glyph glyph-name="circumflex" unicode="&#x2c6;" horiz-adv-x="500" 
d="M434 604h-101l-83 91l-83 -91h-101l132 169h104z" />
    <glyph glyph-name="caron" unicode="&#x2c7;" horiz-adv-x="500" 
d="M434 773l-132 -169h-104l-132 169h101l83 -90l83 90h101z" />
    <glyph glyph-name="breve" unicode="&#x2d8;" horiz-adv-x="500" 
d="M414 742q-4 -77 -49 -114t-114 -37q-70 0 -115.5 37t-49.5 114h88q4 -30 25 -45t52 -15t51.5 15t24.5 45h87z" />
    <glyph glyph-name="dotaccent" unicode="&#x2d9;" horiz-adv-x="500" 
d="M317 608h-134v106h134v-106z" />
    <glyph glyph-name="ring" unicode="&#x2da;" horiz-adv-x="500" 
d="M381 715q0 -54 -38.5 -92.5t-92.5 -38.5t-92.5 38.5t-38.5 92.5t38.5 92.5t92.5 38.5t92.5 -38t38.5 -93zM308 715q0 24 -17 41t-41 17t-41 -17t-17 -41t17 -41.5t41 -17.5t41 17.5t17 41.5z" />
    <glyph glyph-name="ogonek" unicode="&#x2db;" horiz-adv-x="500" 
d="M334 -206h-121l-44 146h97z" />
    <glyph glyph-name="tilde" unicode="&#x2dc;" horiz-adv-x="500" 
d="M430 674q-33 -33 -58.5 -46t-54.5 -13q-21 0 -38 5t-39 18q-31 18 -56 18q-15 0 -28 -5.5t-31 -23.5l-56 57q33 33 58 46t54 13q22 0 39 -5t38 -18q30 -18 55 -18q15 0 28 5.5t31 23.5z" />
    <glyph glyph-name="hungarumlaut" unicode="&#x2dd;" horiz-adv-x="500" 
d="M258 774l-114 -170h-87l63 170h138zM465 774l-115 -170h-86l63 170h138z" />
    <glyph glyph-name="endash" unicode="&#x2013;" 
d="M493 225h-443v121h443v-121z" />
    <glyph glyph-name="emdash" unicode="&#x2014;" horiz-adv-x="1027" 
d="M968 226h-909v125h909v-125z" />
    <glyph glyph-name="quoteleft" unicode="&#x2018;" horiz-adv-x="273" 
d="M204 589h-136v123l136 105v-228z" />
    <glyph glyph-name="quoteright" unicode="&#x2019;" horiz-adv-x="273" 
d="M204 588l-136 -103v227h136v-124z" />
    <glyph glyph-name="quotesinglbase" unicode="&#x201a;" horiz-adv-x="271" 
d="M204 0l-136 -104v228h136v-124z" />
    <glyph glyph-name="quotedblleft" unicode="&#x201c;" horiz-adv-x="482" 
d="M414 589h-136v123l136 105v-228zM203 589h-135v123l135 105v-228z" />
    <glyph glyph-name="quotedblright" unicode="&#x201d;" horiz-adv-x="482" 
d="M414 588l-136 -103v227h136v-124zM203 588l-135 -103v227h135v-124z" />
    <glyph glyph-name="quotedblbase" unicode="&#x201e;" horiz-adv-x="485" 
d="M414 0l-136 -104v228h136v-124zM203 0l-135 -104v228h135v-124z" />
    <glyph glyph-name="dagger" unicode="&#x2020;" horiz-adv-x="579" 
d="M522 410h-168v-410h-130v410h-167v117h167v185h130v-185h168v-117z" />
    <glyph glyph-name="daggerdbl" unicode="&#x2021;" horiz-adv-x="579" 
d="M522 -6h-168v-185h-130v185h-167v117h167v299h-167v117h167v185h130v-185h168v-117h-168v-299h168v-117z" />
    <glyph glyph-name="bullet" unicode="&#x2022;" horiz-adv-x="493" 
d="M409 334q0 -33 -12.5 -63t-35 -52.5t-52.5 -35t-63 -12.5t-63 12.5t-52.5 35t-35 52.5t-12.5 63t12.5 63t35 52.5t52.5 35t63 12.5t63 -12.5t52.5 -35t35 -52.5t12.5 -63z" />
    <glyph glyph-name="ellipsis" unicode="&#x2026;" horiz-adv-x="846" 
d="M210 0h-142v141h142v-141zM493 0h-141v141h141v-141zM778 0h-141v141h141v-141z" />
    <glyph glyph-name="perthousand" unicode="&#x2030;" horiz-adv-x="1211" 
d="M1158 131q0 -65 -41.5 -101t-103.5 -36t-103.5 36t-41.5 101v99q0 65 41.5 101t103.5 36t103.5 -36t41.5 -101v-99zM1064 134v92q0 57 -51 57t-51 -57v-91q0 -57 51 -57t51 56zM796 131q0 -65 -41.5 -101t-103.5 -36t-103.5 36t-41.5 101v99q0 65 41.5 101t103.5 36
t103.5 -36t41.5 -101v-99zM702 135v91q0 57 -51 57t-51 -57v-91q0 -57 51 -57t51 57zM197 345q-62 0 -103.5 36t-41.5 101v99q0 65 41.5 101t103.5 36t103.5 -36t41.5 -101v-99q0 -65 -41.5 -101t-103.5 -36zM248 486v91q0 57 -51 57t-51 -57v-91q0 -57 51 -57t51 57z
M644 712l-337 -712h-102l337 712h102z" />
    <glyph glyph-name="guilsinglleft" unicode="&#x2039;" horiz-adv-x="350" 
d="M283 27l-249 248l249 248v-155l-94 -93l94 -93v-155z" />
    <glyph glyph-name="guilsinglright" unicode="&#x203a;" horiz-adv-x="350" 
d="M316 275l-249 -248v155l95 93l-95 93v155z" />
    <glyph glyph-name="fraction" unicode="&#x2044;" horiz-adv-x="208" 
d="M323 712l-337 -712h-101l337 712h101z" />
    <glyph glyph-name="uni20AC" unicode="&#x20ac;" horiz-adv-x="684" 
d="M632 219q-18 -109 -88.5 -167t-172.5 -58q-114 0 -192 78q-32 33 -47 71.5t-20 93.5h-73v83h69v75h-69v83h73q5 53 20 91.5t47 70.5q78 78 192 78q103 0 173 -58t88 -167h-141q-11 46 -41 73.5t-79 27.5q-54 0 -88 -37q-13 -15 -19.5 -32t-9.5 -47h148v-83h-154v-75h154
v-83h-149q3 -31 10 -49t20 -33q34 -37 88 -37q49 0 79.5 27.5t41.5 73.5h140z" />
    <glyph glyph-name="trademark" unicode="&#x2122;" horiz-adv-x="924" 
d="M860 285h-95v252l-80 -157h-84l-80 157v-252h-95v427h95l122 -228l122 228h95v-427zM360 627h-110v-342h-95v342h-110v85h315v-85z" />
    <glyph glyph-name="periodcentered" unicode="&#x2219;" horiz-adv-x="285" 
d="M217 212h-149v148h149v-148z" />
    <glyph glyph-name="fi" unicode="&#xf001;" horiz-adv-x="602" 
d="M311 407h-96v-407h-130v407h-54v99h54v65q0 61 39 105t113 44h74v-110h-50q-46 0 -46 -47v-57h96v-99zM530 0h-130v506h130v-506zM532 610h-134v106h134v-106z" />
    <glyph glyph-name="fl" unicode="&#xf002;" horiz-adv-x="648" 
d="M311 407h-96v-407h-130v407h-54v99h54v65q0 61 39 105t113 44h74v-110h-50q-46 0 -46 -47v-57h96v-99zM624 0h-74q-75 0 -113.5 44t-38.5 105v563h130v-555q0 -47 46 -47h50v-110z" />
    <glyph glyph-name="NULL" horiz-adv-x="232" 
 />
    </font>
</defs>
</svg>
