<?xml version="1.0" encoding="utf-8"?>
<!-- Generator: Adobe Illustrator 27.9.0, SVG Export Plug-In . SVG Version: 6.00 Build 0)  -->
<svg version="1.1" id="Ebene_1" xmlns="http://www.w3.org/2000/svg" xmlns:xlink="http://www.w3.org/1999/xlink" x="0px" y="0px"
	 viewBox="0 0 16 16" style="enable-background:new 0 0 16 16;" xml:space="preserve">
<style type="text/css">
	.st0{fill:#FFFFFF;}
</style>
<path class="st0" d="M8.7,1.5c-0.4-0.4-1-0.4-1.4,0L0.6,8.1c-0.2,0.2-0.2,0.5,0,0.7s0.5,0.2,0.7,0l0,0L8,2.2l6.6,6.6
	c0.2,0.2,0.5,0.2,0.7,0s0.2-0.5,0-0.7L13,5.8V2.5C13,2.2,12.8,2,12.5,2h-1C11.2,2,11,2.2,11,2.5v1.3L8.7,1.5z"/>
<path class="st0" d="M8,3.3l6,6v4.2c0,0.8-0.7,1.5-1.5,1.5h-9C2.7,15,2,14.3,2,13.5V9.3C2,9.3,8,3.3,8,3.3z"/>
</svg>
