<?xml version="1.0" encoding="utf-8"?>
<!-- Generator: Adobe Illustrator 28.0.0, SVG Export Plug-In . SVG Version: 6.00 Build 0)  -->
<svg version="1.1" id="Ebene_1" xmlns="http://www.w3.org/2000/svg" xmlns:xlink="http://www.w3.org/1999/xlink" x="0px" y="0px"
	 viewBox="0 0 16 16" style="enable-background:new 0 0 16 16;" xml:space="preserve">
<style type="text/css">
	.st0{fill-rule:evenodd;clip-rule:evenodd;fill:#FFFFFF;}
</style>
<path class="st0" d="M0,0.5C0,0.2,0.2,0,0.5,0h9C9.8,0,10,0.2,10,0.5S9.8,1,9.5,1h-9C0.2,1,0,0.8,0,0.5z M13,0.5
	C13,0.2,13.2,0,13.5,0h2C15.8,0,16,0.2,16,0.5S15.8,1,15.5,1h-2C13.2,1,13,0.8,13,0.5z M0,2.5C0,2.2,0.2,2,0.5,2h8
	C8.8,2,9,2.2,9,2.5S8.8,3,8.5,3h-8C0.2,3,0,2.8,0,2.5z M13,2.5C13,2.2,13.2,2,13.5,2h2C15.8,2,16,2.2,16,2.5S15.8,3,15.5,3h-2
	C13.2,3,13,2.8,13,2.5z M0,4.5C0,4.2,0.2,4,0.5,4h10C10.8,4,11,4.2,11,4.5S10.8,5,10.5,5h-10C0.2,5,0,4.8,0,4.5z M13,4.5
	C13,4.2,13.2,4,13.5,4h2C15.8,4,16,4.2,16,4.5S15.8,5,15.5,5h-2C13.2,5,13,4.8,13,4.5z M0,6.5C0,6.2,0.2,6,0.5,6h7
	C7.8,6,8,6.2,8,6.5S7.8,7,7.5,7h-7C0.2,7,0,6.8,0,6.5z M13,6.5C13,6.2,13.2,6,13.5,6h2C15.8,6,16,6.2,16,6.5S15.8,7,15.5,7h-2
	C13.2,7,13,6.8,13,6.5z M0,8.5C0,8.2,0.2,8,0.5,8h7C7.8,8,8,8.2,8,8.5S7.8,9,7.5,9h-7C0.2,9,0,8.8,0,8.5z M13,8.5
	C13,8.2,13.2,8,13.5,8h2C15.8,8,16,8.2,16,8.5S15.8,9,15.5,9h-2C13.2,9,13,8.8,13,8.5z M0,10.5C0,10.2,0.2,10,0.5,10h9
	c0.3,0,0.5,0.2,0.5,0.5S9.8,11,9.5,11h-9C0.2,11,0,10.8,0,10.5z M13,10.5c0-0.3,0.2-0.5,0.5-0.5h2c0.3,0,0.5,0.2,0.5,0.5
	S15.8,11,15.5,11h-2C13.2,11,13,10.8,13,10.5z M0,12.5C0,12.2,0.2,12,0.5,12h5C5.8,12,6,12.2,6,12.5S5.8,13,5.5,13h-5
	C0.2,13,0,12.8,0,12.5z M13,12.5c0-0.3,0.2-0.5,0.5-0.5h2c0.3,0,0.5,0.2,0.5,0.5S15.8,13,15.5,13h-2C13.2,13,13,12.8,13,12.5z
	 M0,14.5C0,14.2,0.2,14,0.5,14h10c0.3,0,0.5,0.2,0.5,0.5S10.8,15,10.5,15h-10C0.2,15,0,14.8,0,14.5z M13,14.5c0-0.3,0.2-0.5,0.5-0.5
	h2c0.3,0,0.5,0.2,0.5,0.5S15.8,15,15.5,15h-2C13.2,15,13,14.8,13,14.5z"/>
</svg>
