<?xml version="1.0" encoding="utf-8"?>
<!-- Generator: Adobe Illustrator 28.0.0, SVG Export Plug-In . SVG Version: 6.00 Build 0)  -->
<svg version="1.1" id="Ebene_1" xmlns="http://www.w3.org/2000/svg" xmlns:xlink="http://www.w3.org/1999/xlink" x="0px" y="0px"
	 viewBox="0 0 16 16" style="enable-background:new 0 0 16 16;" xml:space="preserve">
<style type="text/css">
	.st0{fill:#FFFFFF;}
</style>
<path class="st0" d="M4.5,9C2.6,9,1,10.6,1,12.5S2.6,16,4.5,16h7c1.9,0,3.5-1.6,3.5-3.5S13.4,9,11.5,9H4.5z M11.5,15
	C10.1,15,9,13.9,9,12.5s1.1-2.5,2.5-2.5s2.5,1.1,2.5,2.5S12.9,15,11.5,15z M4.5,1C3.1,1,2,2.1,2,3.5S3.1,6,4.5,6S7,4.9,7,3.5
	S5.9,1,4.5,1z M6.9,1C7.6,1.7,8,2.6,8,3.5C8,4.4,7.6,5.3,6.9,6h4.6C12.9,6,14,4.9,14,3.5S12.9,1,11.5,1H6.9z M4.5,0h7
	C13.4,0,15,1.6,15,3.5S13.4,7,11.5,7h-7C2.6,7,1,5.4,1,3.5S2.6,0,4.5,0z"/>
</svg>
