<?xml version="1.0" encoding="utf-8"?>
<!-- Generator: Adobe Illustrator 27.9.0, SVG Export Plug-In . SVG Version: 6.00 Build 0)  -->
<svg version="1.1" id="Ebene_1" xmlns="http://www.w3.org/2000/svg" xmlns:xlink="http://www.w3.org/1999/xlink" x="0px" y="0px"
	 viewBox="0 0 16 16" style="enable-background:new 0 0 16 16;" xml:space="preserve">
<style type="text/css">
	.st0{fill:#1D1D1B;}
</style>
<path class="st0" d="M4.5,6.7L4.1,8H3l1.9-5h1.3L8,8H6.8L6.4,6.7C6.4,6.7,4.5,6.7,4.5,6.7z M6.2,6L5.5,4h0L4.8,6H6.2L6.2,6z"/>
<path class="st0" d="M0,2c0-1.1,0.9-2,2-2h7c1.1,0,2,0.9,2,2v3h3c1.1,0,2,0.9,2,2v7c0,1.1-0.9,2-2,2H7c-1.1,0-2-0.9-2-2v-3H2
	c-1.1,0-2-0.9-2-2V2z M2,1C1.4,1,1,1.4,1,2v7c0,0.6,0.4,1,1,1h7c0.6,0,1-0.4,1-1V2c0-0.6-0.4-1-1-1H2z M9.1,11
	c0.2,0.3,0.4,0.6,0.6,0.8c-0.7,0.6-1.7,1-2.8,1.3c0.2,0.2,0.5,0.6,0.6,0.9c1.1-0.4,2.1-0.8,2.9-1.5c0.8,0.7,1.7,1.2,2.9,1.5
	c0.1-0.3,0.4-0.7,0.6-0.9c-1.1-0.3-2.1-0.7-2.8-1.3c0.7-0.7,1.2-1.7,1.6-2.8H14V8h-3v1h0.8c-0.3,0.8-0.7,1.5-1.3,2.1
	c-0.1-0.2-0.3-0.3-0.4-0.5C9.8,10.9,9.5,11,9.1,11z"/>
</svg>
